<!DOCTYPE svg PUBLIC "-//W3C//DTD SVG 20010904//EN" "http://www.w3.org/TR/2001/REC-SVG-20010904/DTD/svg10.dtd">
<svg version="1.0" xmlns="http://www.w3.org/2000/svg" width="840px" height="840px" viewBox="0 0 8400 8400" preserveAspectRatio="xMidYMid meet">
<g id="layer1" fill="#40403f" stroke="none">
 <path d="M4020 7995 c-7 -8 -10 -15 -6 -15 3 -1 40 -1 81 -1 41 0 78 0 81 1 4 0 1 7 -6 15 -9 10 -32 15 -75 15 -43 0 -66 -5 -75 -15z"/>
 <path d="M3802 7987 c-7 -8 -9 -16 -6 -19 8 -9 53 5 56 17 5 16 -37 17 -50 2z"/>
 <path d="M4335 7990 c-3 -6 1 -12 9 -15 9 -3 22 -7 30 -9 20 -6 28 5 15 21 -13 15 -45 17 -54 3z"/>
 <path d="M3691 7976 c-7 -8 -8 -16 -4 -19 13 -8 55 12 48 23 -9 14 -31 12 -44 -4z"/>
 <path d="M4455 7980 c-7 -11 35 -31 48 -23 11 6 -12 33 -29 33 -7 0 -16 -5 -19 -10z"/>
 <path d="M3594 7970 c-24 -9 -38 -36 -28 -52 5 -7 11 -5 19 5 6 9 24 21 39 27 15 5 24 14 21 20 -7 12 -22 12 -51 0z"/>
 <path d="M4545 7971 c-8 -13 42 -34 63 -26 19 7 5 22 -29 30 -16 4 -30 2 -34 -4z"/>
 <path d="M3555 7890 c-4 -6 -3 -16 3 -22 6 -6 12 -6 17 2 4 6 3 16 -3 22 -6 6 -12 6 -17 -2z"/>
 <path d="M4617 7864 c-3 -4 -2 -16 4 -26 8 -15 14 -17 22 -9 8 8 7 15 -4 26 -8 9 -18 13 -22 9z"/>
 <path d="M3540 7804 c-9 -10 -10 -18 -3 -25 8 -8 14 -5 22 9 13 25 -2 38 -19 16z"/>
 <path d="M3520 7715 c-6 -8 -9 -19 -5 -25 4 -6 1 -18 -6 -26 -9 -10 -9 -18 -2 -25 8 -8 14 -5 22 9 6 10 8 22 5 25 -3 3 -1 14 5 26 13 24 -2 37 -19 16z"/>
 <path d="M4655 7710 c-4 -6 -3 -16 3 -22 6 -6 12 -6 17 2 4 6 3 16 -3 22 -6 6 -12 6 -17 -2z"/>
 <path d="M4667 7634 c-3 -4 -2 -16 4 -26 8 -15 14 -17 22 -9 8 8 7 15 -4 26 -8 9 -18 13 -22 9z"/>
 <path d="M3490 7574 c-9 -10 -10 -18 -3 -25 8 -8 14 -5 22 9 13 25 -2 38 -19 16z"/>
 <path d="M4685 7570 c-4 -6 -3 -16 3 -22 6 -6 12 -6 17 2 4 6 3 16 -3 22 -6 6 -12 6 -17 -2z"/>
 <path d="M3475 7520 c-4 -6 -3 -16 3 -22 6 -6 12 -6 17 2 4 6 3 16 -3 22 -6 6 -12 6 -17 -2z"/>
 <path d="M3415 7461 c-7 -12 12 -24 25 -16 11 7 4 25 -10 25 -5 0 -11 -4 -15 -9z"/>
 <path d="M4745 7461 c-7 -12 12 -24 25 -16 11 7 4 25 -10 25 -5 0 -11 -4 -15 -9z"/>
 <path d="M3365 7451 c-7 -12 12 -24 25 -16 11 7 4 25 -10 25 -5 0 -11 -4 -15 -9z"/>
 <path d="M4795 7451 c-7 -12 12 -24 25 -16 11 7 4 25 -10 25 -5 0 -11 -4 -15 -9z"/>
 <path d="M3315 7441 c-7 -12 12 -24 25 -16 11 7 4 25 -10 25 -5 0 -11 -4 -15 -9z"/>
 <path d="M4845 7441 c-7 -12 12 -24 25 -16 11 7 4 25 -10 25 -5 0 -11 -4 -15 -9z"/>
 <path d="M3235 7421 c-7 -12 12 -24 25 -16 11 7 4 25 -10 25 -5 0 -11 -4 -15 -9z"/>
 <path d="M4925 7421 c-7 -12 12 -24 25 -16 11 7 4 25 -10 25 -5 0 -11 -4 -15 -9z"/>
 <path d="M3111 7389 c-16 -6 -21 -13 -14 -20 13 -13 67 7 58 21 -7 12 -12 12 -44 -1z"/>
 <path d="M5035 7390 c-9 -14 45 -34 58 -21 7 7 1 14 -17 21 -33 12 -33 12 -41 0z"/>
 <path d="M2911 7317 c-6 -8 -8 -17 -5 -20 10 -9 45 13 39 24 -9 13 -21 11 -34 -4z"/>
 <path d="M5245 7321 c-6 -11 29 -33 39 -24 7 7 -12 33 -25 33 -4 0 -10 -4 -14 -9z"/>
 <path d="M1857 7289 c-15 -12 -25 -25 -22 -30 4 -5 0 -6 -8 -3 -16 6 -43 -21 -29 -30 9 -6 108 61 105 72 -3 14 -19 11 -46 -9z"/>
 <path d="M6286 7301 c-8 -12 55 -52 68 -44 5 4 -4 17 -20 30 -32 25 -40 28 -48 14z"/>
 <path d="M1935 7291 c-6 -11 29 -33 39 -24 7 7 -12 33 -25 33 -4 0 -10 -4 -14 -9z"/>
 <path d="M2831 7287 c-6 -8 -8 -17 -5 -20 10 -9 45 13 39 24 -9 13 -21 11 -34 -4z"/>
 <path d="M5325 7291 c-6 -11 29 -33 39 -24 7 7 -12 33 -25 33 -4 0 -10 -4 -14 -9z"/>
 <path d="M1996 7252 c-3 -6 1 -15 8 -21 8 -7 17 -8 20 -3 3 6 -1 15 -8 21 -8 7 -17 8 -20 3z"/>
 <path d="M6171 7246 c-7 -8 -8 -17 -3 -20 6 -3 15 1 21 8 7 8 8 17 3 20 -6 3 -15 -1 -21 -8z"/>
 <path d="M2711 7237 c-6 -8 -8 -17 -5 -20 10 -9 45 13 39 24 -9 13 -21 11 -34 -4z"/>
 <path d="M5445 7241 c-6 -11 29 -33 39 -24 7 7 -12 33 -25 33 -4 0 -10 -4 -14 -9z"/>
 <path d="M6385 7231 c-6 -11 29 -33 39 -24 7 7 -12 33 -25 33 -4 0 -10 -4 -14 -9z"/>
 <path d="M1351 7206 c-7 -8 -8 -17 -3 -20 6 -3 15 1 21 8 7 8 8 17 3 20 -6 3 -15 -1 -21 -8z"/>
 <path d="M6121 7206 c-7 -8 -8 -17 -3 -20 6 -3 15 1 21 8 7 8 8 17 3 20 -6 3 -15 -1 -21 -8z"/>
 <path d="M1721 7186 c-6 -7 -8 -16 -4 -20 4 -4 0 -4 -8 -1 -18 7 -45 -20 -30 -29 6 -4 24 6 42 22 19 17 28 31 22 35 -6 4 -16 1 -22 -7z"/>
 <path d="M6446 7192 c-3 -6 1 -15 8 -21 8 -7 17 -8 20 -3 3 6 -1 15 -8 21 -8 7 -17 8 -20 3z"/>
 <path d="M2086 7182 c-3 -6 1 -15 8 -21 8 -7 17 -8 20 -3 3 6 -1 15 -8 21 -8 7 -17 8 -20 3z"/>
 <path d="M6486 7162 c-3 -6 1 -15 8 -21 8 -7 17 -8 20 -3 3 6 -1 15 -8 21 -8 7 -17 8 -20 3z"/>
 <path d="M6031 7136 c-7 -8 -8 -17 -3 -20 6 -3 15 1 21 8 7 8 8 17 3 20 -6 3 -15 -1 -21 -8z"/>
 <path d="M1631 7117 c-6 -8 -8 -17 -5 -20 10 -9 45 13 39 24 -9 13 -21 11 -34 -4z"/>
 <path d="M6525 7121 c-6 -11 29 -33 39 -24 7 7 -12 33 -25 33 -4 0 -10 -4 -14 -9z"/>
 <path d="M2176 7112 c-3 -6 1 -15 8 -21 8 -7 17 -8 20 -3 3 6 -1 15 -8 21 -8 7 -17 8 -20 3z"/>
 <path d="M2431 7097 c-6 -8 -8 -17 -5 -20 10 -9 45 13 39 24 -9 13 -21 11 -34 -4z"/>
 <path d="M5725 7101 c-6 -11 29 -33 39 -24 7 7 -12 33 -25 33 -4 0 -10 -4 -14 -9z"/>
 <path d="M1571 7066 c-7 -8 -8 -17 -3 -20 6 -3 15 1 21 8 7 8 8 17 3 20 -6 3 -15 -1 -21 -8z"/>
 <path d="M2226 7072 c-3 -6 1 -15 8 -21 8 -7 17 -8 20 -3 3 6 -1 15 -8 21 -8 7 -17 8 -20 3z"/>
 <path d="M5941 7066 c-7 -8 -8 -17 -3 -20 6 -3 15 1 21 8 7 8 8 17 3 20 -6 3 -15 -1 -21 -8z"/>
 <path d="M6596 7072 c-3 -6 1 -15 8 -21 8 -7 17 -8 20 -3 3 6 -1 15 -8 21 -8 7 -17 8 -20 3z"/>
 <path d="M1491 6996 c-7 -8 -8 -17 -3 -20 6 -3 15 1 21 8 7 8 8 17 3 20 -6 3 -15 -1 -21 -8z"/>
 <path d="M6676 7002 c-3 -6 1 -15 8 -21 8 -7 17 -8 20 -3 3 6 -1 15 -8 21 -8 7 -17 8 -20 3z"/>
 <path d="M965 6821 c-7 -12 12 -24 25 -16 11 7 4 25 -10 25 -5 0 -11 -4 -15 -9z"/>
 <path d="M936 6781 c-10 -11 -13 -22 -8 -25 5 -3 17 3 26 13 10 11 13 22 8 25 -5 3 -17 -3 -26 -13z"/>
 <path d="M6917 6764 c-3 -5 12 -28 33 -52 25 -27 41 -39 45 -31 5 6 -9 28 -32 51 -22 22 -43 36 -46 32z"/>
 <path d="M1220 6725 c-22 -22 -30 -39 -24 -44 5 -6 21 5 42 29 41 49 26 61 -18 15z"/>
 <path d="M3975 6730 c-8 -12 20 -24 35 -15 6 3 8 11 5 16 -8 12 -32 12 -40 -1z"/>
 <path d="M4175 6730 c-8 -12 20 -24 35 -15 6 3 8 11 5 16 -8 12 -32 12 -40 -1z"/>
 <path d="M3825 6721 c-7 -12 12 -24 25 -16 11 7 4 25 -10 25 -5 0 -11 -4 -15 -9z"/>
 <path d="M4335 6721 c-7 -12 12 -24 25 -16 11 7 4 25 -10 25 -5 0 -11 -4 -15 -9z"/>
 <path d="M3665 6701 c-7 -12 12 -24 25 -16 11 7 4 25 -10 25 -5 0 -11 -4 -15 -9z"/>
 <path d="M4495 6701 c-7 -12 12 -24 25 -16 11 7 4 25 -10 25 -5 0 -11 -4 -15 -9z"/>
 <path d="M3555 6681 c-7 -12 12 -24 25 -16 11 7 4 25 -10 25 -5 0 -11 -4 -15 -9z"/>
 <path d="M4605 6681 c-7 -12 12 -24 25 -16 11 7 4 25 -10 25 -5 0 -11 -4 -15 -9z"/>
 <path d="M1151 6646 c-13 -13 -18 -26 -13 -30 5 -3 19 5 31 18 13 13 18 26 13 30 -5 3 -19 -5 -31 -18z"/>
 <path d="M7007 6664 c-4 -4 2 -17 14 -30 l20 -22 -20 -40 c-12 -23 -17 -43 -12 -46 10 -7 22 7 44 52 15 32 15 34 -11 63 -15 17 -31 27 -35 23z"/>
 <path d="M3285 6617 c-72 -24 -98 -38 -89 -47 11 -11 100 14 122 35 19 18 2 24 -33 12z"/>
 <path d="M4865 6621 c-7 -13 14 -26 69 -45 29 -9 54 -12 59 -7 11 11 1 17 -68 41 -30 10 -57 15 -60 11z"/>
 <path d="M1145 6580 c-10 -17 31 -84 46 -74 8 5 -26 84 -36 84 -2 0 -7 -4 -10 -10z"/>
 <path d="M3075 6536 c-14 -10 -15 -15 -6 -21 8 -4 19 -1 28 8 20 19 1 30 -22 13z"/>
 <path d="M5086 6541 c-9 -15 23 -36 35 -24 8 8 5 14 -9 22 -12 6 -23 7 -26 2z"/>
 <path d="M2985 6496 c-14 -10 -15 -15 -6 -21 8 -4 19 -1 28 8 20 19 1 30 -22 13z"/>
 <path d="M3965 6500 c-3 -5 0 -13 8 -16 23 -9 112 0 110 11 -4 14 -110 19 -118 5z"/>
 <path d="M4105 6500 c-3 -5 0 -13 8 -16 23 -9 112 0 110 11 -4 14 -110 19 -118 5z"/>
 <path d="M5176 6501 c-9 -15 23 -36 35 -24 8 8 5 14 -9 22 -12 6 -23 7 -26 2z"/>
 <path d="M3835 6490 c-3 -5 0 -13 9 -16 21 -8 61 -1 61 11 0 14 -62 19 -70 5z"/>
 <path d="M4285 6490 c-3 -5 0 -13 9 -16 21 -8 61 -1 61 11 0 14 -62 19 -70 5z"/>
 <path d="M3755 6480 c-8 -12 20 -24 35 -15 6 3 8 11 5 16 -8 12 -32 12 -40 -1z"/>
 <path d="M4395 6480 c-8 -12 20 -24 35 -15 6 3 8 11 5 16 -8 12 -32 12 -40 -1z"/>
 <path d="M3695 6470 c-8 -12 20 -24 35 -15 6 3 8 11 5 16 -8 12 -32 12 -40 -1z"/>
 <path d="M4455 6470 c-8 -12 20 -24 35 -15 6 3 8 11 5 16 -8 12 -32 12 -40 -1z"/>
 <path d="M3635 6460 c-8 -12 20 -24 35 -15 6 3 8 11 5 16 -8 12 -32 12 -40 -1z"/>
 <path d="M4515 6460 c-8 -12 20 -24 35 -15 6 3 8 11 5 16 -8 12 -32 12 -40 -1z"/>
 <path d="M3586 6451 c-4 -6 -13 -8 -20 -5 -17 6 -31 -12 -16 -21 5 -3 16 -3 23 2 6 4 17 8 22 8 14 0 19 19 7 23 -6 2 -13 -1 -16 -7z"/>
 <path d="M4575 6451 c-6 -11 13 -26 22 -17 3 3 12 1 19 -5 7 -6 18 -8 24 -4 14 9 1 28 -16 21 -7 -3 -16 -1 -19 4 -8 13 -22 13 -30 1z"/>
 <path d="M3491 6427 c-6 -8 -8 -17 -5 -20 10 -9 45 13 39 24 -9 13 -21 11 -34 -4z"/>
 <path d="M4665 6431 c-6 -11 29 -33 39 -24 7 7 -12 33 -25 33 -4 0 -10 -4 -14 -9z"/>
 <path d="M2825 6416 c-14 -10 -15 -15 -6 -21 8 -4 19 -1 28 8 20 19 1 30 -22 13z"/>
 <path d="M5336 6421 c-9 -15 23 -36 35 -24 8 8 5 14 -9 22 -12 6 -23 7 -26 2z"/>
 <path d="M3421 6407 c-6 -8 -8 -17 -5 -20 10 -9 45 13 39 24 -9 13 -21 11 -34 -4z"/>
 <path d="M4735 6411 c-6 -11 29 -33 39 -24 7 7 -12 33 -25 33 -4 0 -10 -4 -14 -9z"/>
 <path d="M3351 6387 c-6 -8 -8 -17 -5 -20 10 -9 45 13 39 24 -9 13 -21 11 -34 -4z"/>
 <path d="M4805 6391 c-6 -11 29 -33 39 -24 7 7 -12 33 -25 33 -4 0 -10 -4 -14 -9z"/>
 <path d="M2755 6376 c-14 -10 -15 -15 -6 -21 8 -4 19 -1 28 8 20 19 1 30 -22 13z"/>
 <path d="M5406 6381 c-9 -15 23 -36 35 -24 8 8 5 14 -9 22 -12 6 -23 7 -26 2z"/>
 <path d="M6880 6301 c-25 -50 -9 -65 20 -19 23 37 24 44 10 53 -5 3 -18 -12 -30 -34z"/>
 <path d="M1287 6304 c-3 -4 10 -38 30 -77 30 -60 33 -74 23 -90 -19 -32 4 -42 25 -11 17 27 17 28 -16 96 -34 70 -51 93 -62 82z"/>
 <path d="M3045 6268 c-49 -26 -65 -40 -60 -48 4 -6 28 1 56 15 27 14 47 30 44 35 -8 12 -15 12 -40 -2z"/>
 <path d="M5105 6270 c-3 -5 17 -21 44 -35 28 -13 52 -21 55 -16 7 10 -7 23 -51 45 -37 19 -40 19 -48 6z"/>
 <path d="M2555 6246 c-14 -10 -15 -15 -6 -21 8 -4 19 -1 28 8 20 19 1 30 -22 13z"/>
 <path d="M5606 6251 c-9 -15 23 -36 35 -24 8 8 5 14 -9 22 -12 6 -23 7 -26 2z"/>
 <path d="M2481 6186 c-7 -8 -8 -17 -3 -20 6 -3 15 1 21 8 7 8 8 17 3 20 -6 3 -15 -1 -21 -8z"/>
 <path d="M5686 6192 c-3 -6 1 -15 8 -21 8 -7 17 -8 20 -3 3 6 -1 15 -8 21 -8 7 -17 8 -20 3z"/>
 <path d="M2881 6177 c-6 -8 -8 -17 -5 -20 10 -9 45 13 39 24 -9 13 -21 11 -34 -4z"/>
 <path d="M5275 6181 c-6 -11 29 -33 39 -24 7 7 -12 33 -25 33 -4 0 -10 -4 -14 -9z"/>
 <path d="M2817 6139 c-38 -29 -24 -42 18 -18 19 12 32 25 29 30 -8 13 -16 11 -47 -12z"/>
 <path d="M5326 6151 c-3 -5 10 -18 29 -30 43 -25 56 -10 16 18 -33 24 -37 25 -45 12z"/>
 <path d="M6826 6142 c-3 -6 1 -15 8 -21 8 -7 17 -8 20 -3 3 6 -1 15 -8 21 -8 7 -17 8 -20 3z"/>
 <path d="M2371 6096 c-7 -8 -8 -17 -3 -20 6 -3 15 1 21 8 7 8 8 17 3 20 -6 3 -15 -1 -21 -8z"/>
 <path d="M5796 6102 c-3 -6 1 -15 8 -21 8 -7 17 -8 20 -3 3 6 -1 15 -8 21 -8 7 -17 8 -20 3z"/>
 <path d="M1250 6004 c-33 -47 -48 -80 -43 -85 6 -6 29 21 61 70 28 44 47 83 42 86 -5 3 -32 -29 -60 -71z"/>
 <path d="M2695 6056 c-18 -14 -24 -25 -17 -30 6 -3 23 4 38 17 36 31 17 43 -21 13z"/>
 <path d="M5456 6072 c-5 -9 15 -31 41 -46 26 -15 21 14 -6 33 -16 12 -32 17 -35 13z"/>
 <path d="M6878 6074 c-4 -3 17 -41 45 -85 30 -46 55 -75 60 -70 5 5 -12 40 -42 85 -54 79 -54 80 -63 70z"/>
 <path d="M2641 6016 c-7 -8 -8 -17 -3 -20 6 -3 15 1 21 8 7 8 8 17 3 20 -6 3 -15 -1 -21 -8z"/>
 <path d="M5526 6022 c-3 -6 1 -15 8 -21 8 -7 17 -8 20 -3 3 6 -1 15 -8 21 -8 7 -17 8 -20 3z"/>
 <path d="M3995 6011 c-7 -12 12 -24 25 -16 11 7 4 25 -10 25 -5 0 -11 -4 -15 -9z"/>
 <path d="M4236 5991 c-3 -5 10 -18 29 -30 33 -19 59 -14 32 7 -26 20 -56 32 -61 23z"/>
 <path d="M2231 5966 c-13 -13 -18 -26 -13 -30 5 -3 19 5 31 18 13 13 18 26 13 30 -5 3 -19 -5 -31 -18z"/>
 <path d="M2591 5976 c-7 -8 -8 -17 -3 -20 6 -3 15 1 21 8 7 8 8 17 3 20 -6 3 -15 -1 -21 -8z"/>
 <path d="M5576 5982 c-3 -6 1 -15 8 -21 8 -7 17 -8 20 -3 3 6 -1 15 -8 21 -8 7 -17 8 -20 3z"/>
 <path d="M5926 5982 c-3 -5 5 -19 18 -31 13 -13 26 -18 30 -13 3 5 -5 19 -18 31 -13 13 -26 18 -30 13z"/>
 <path d="M3891 5956 c-7 -8 -8 -17 -3 -20 6 -3 15 1 21 8 7 8 8 17 3 20 -6 3 -15 -1 -21 -8z"/>
 <path d="M2541 5936 c-7 -8 -8 -17 -3 -20 6 -3 15 1 21 8 7 8 8 17 3 20 -6 3 -15 -1 -21 -8z"/>
 <path d="M5626 5942 c-3 -6 1 -15 8 -21 8 -7 17 -8 20 -3 3 6 -1 15 -8 21 -8 7 -17 8 -20 3z"/>
 <path d="M3814 5870 c-20 -30 -24 -44 -16 -52 8 -8 13 -6 18 8 4 10 16 31 26 46 11 16 14 29 9 33 -6 3 -22 -13 -37 -35z"/>
 <path d="M2456 5861 c-15 -16 -23 -31 -18 -35 5 -3 21 8 36 23 15 16 23 31 18 35 -5 3 -21 -8 -36 -23z"/>
 <path d="M5696 5882 c-3 -5 8 -21 23 -36 16 -15 31 -23 35 -18 3 5 -8 21 -23 36 -16 15 -31 23 -35 18z"/>
 <path d="M1150 5844 c-9 -10 -10 -18 -3 -25 8 -8 14 -5 22 9 13 25 -2 38 -19 16z"/>
 <path d="M2101 5826 c-7 -8 -8 -17 -3 -20 6 -3 15 1 21 8 7 8 8 17 3 20 -6 3 -15 -1 -21 -8z"/>
 <path d="M6066 5832 c-3 -6 1 -15 8 -21 8 -7 17 -8 20 -3 3 6 -1 15 -8 21 -8 7 -17 8 -20 3z"/>
 <path d="M1120 5794 c-9 -10 -10 -18 -3 -25 8 -8 14 -5 22 9 13 25 -2 38 -19 16z"/>
 <path d="M7047 5804 c-3 -4 -2 -16 4 -26 8 -15 14 -17 22 -9 8 8 7 15 -4 26 -8 9 -18 13 -22 9z"/>
 <path d="M3775 5780 c-4 -6 -3 -16 3 -22 6 -6 12 -6 17 2 4 6 3 16 -3 22 -6 6 -12 6 -17 -2z"/>
 <path d="M2341 5746 c-13 -13 -18 -26 -13 -30 5 -3 19 5 31 18 13 13 18 26 13 30 -5 3 -19 -5 -31 -18z"/>
 <path d="M5816 5762 c-3 -5 5 -19 18 -31 13 -13 26 -18 30 -13 3 5 -5 19 -18 31 -13 13 -26 18 -30 13z"/>
 <path d="M3765 5730 c-4 -6 -3 -16 3 -22 6 -6 12 -6 17 2 4 6 3 16 -3 22 -6 6 -12 6 -17 -2z"/>
 <path d="M4415 5730 c-4 -6 -3 -16 3 -22 6 -6 12 -6 17 2 4 6 3 16 -3 22 -6 6 -12 6 -17 -2z"/>
 <path d="M2011 5716 c-7 -8 -8 -17 -3 -20 6 -3 15 1 21 8 7 8 8 17 3 20 -6 3 -15 -1 -21 -8z"/>
 <path d="M6156 5722 c-3 -6 1 -15 8 -21 8 -7 17 -8 20 -3 3 6 -1 15 -8 21 -8 7 -17 8 -20 3z"/>
 <path d="M1060 5684 c-9 -10 -10 -18 -3 -25 8 -8 14 -5 22 9 13 25 -2 38 -19 16z"/>
 <path d="M7107 5694 c-3 -4 -2 -16 4 -26 8 -15 14 -17 22 -9 8 8 7 15 -4 26 -8 9 -18 13 -22 9z"/>
 <path d="M2261 5656 c-7 -8 -8 -17 -3 -20 6 -3 15 1 21 8 7 8 8 17 3 20 -6 3 -15 -1 -21 -8z"/>
 <path d="M5906 5662 c-3 -6 1 -15 8 -21 8 -7 17 -8 20 -3 3 6 -1 15 -8 21 -8 7 -17 8 -20 3z"/>
 <path d="M1951 5636 c-7 -8 -8 -17 -3 -20 6 -3 15 1 21 8 7 8 8 17 3 20 -6 3 -15 -1 -21 -8z"/>
 <path d="M6216 5642 c-3 -6 1 -15 8 -21 8 -7 17 -8 20 -3 3 6 -1 15 -8 21 -8 7 -17 8 -20 3z"/>
 <path d="M7137 5634 c-3 -4 8 -33 24 -66 20 -41 34 -57 41 -50 6 6 1 26 -16 60 -26 52 -39 66 -49 56z"/>
 <path d="M1022 5607 c-25 -31 -43 -80 -34 -89 7 -7 19 6 36 40 14 28 22 53 17 56 -5 3 -13 0 -19 -7z"/>
 <path d="M2221 5606 c-7 -8 -8 -17 -3 -20 6 -3 15 1 21 8 7 8 8 17 3 20 -6 3 -15 -1 -21 -8z"/>
 <path d="M5946 5612 c-3 -6 1 -15 8 -21 8 -7 17 -8 20 -3 3 6 -1 15 -8 21 -8 7 -17 8 -20 3z"/>
 <path d="M1901 5566 c-7 -8 -8 -17 -3 -20 6 -3 15 1 21 8 7 8 8 17 3 20 -6 3 -15 -1 -21 -8z"/>
 <path d="M6266 5572 c-3 -6 1 -15 8 -21 8 -7 17 -8 20 -3 3 6 -1 15 -8 21 -8 7 -17 8 -20 3z"/>
 <path d="M2181 5556 c-7 -8 -8 -17 -3 -20 6 -3 15 1 21 8 7 8 8 17 3 20 -6 3 -15 -1 -21 -8z"/>
 <path d="M5986 5562 c-3 -6 1 -15 8 -21 8 -7 17 -8 20 -3 3 6 -1 15 -8 21 -8 7 -17 8 -20 3z"/>
 <path d="M2131 5486 c-7 -8 -8 -17 -3 -20 6 -3 15 1 21 8 7 8 8 17 3 20 -6 3 -15 -1 -21 -8z"/>
 <path d="M6036 5492 c-3 -6 1 -15 8 -21 8 -7 17 -8 20 -3 3 6 -1 15 -8 21 -8 7 -17 8 -20 3z"/>
 <path d="M950 5454 c-9 -10 -10 -18 -3 -25 8 -8 14 -5 22 9 13 25 -2 38 -19 16z"/>
 <path d="M1831 5456 c-7 -8 -8 -17 -3 -20 6 -3 15 1 21 8 7 8 8 17 3 20 -6 3 -15 -1 -21 -8z"/>
 <path d="M6336 5462 c-3 -6 1 -15 8 -21 8 -7 17 -8 20 -3 3 6 -1 15 -8 21 -8 7 -17 8 -20 3z"/>
 <path d="M2061 5381 c-12 -16 -17 -32 -12 -35 5 -4 19 7 30 23 12 16 17 32 12 35 -5 4 -19 -7 -30 -23z"/>
 <path d="M6097 5404 c-3 -6 4 -23 17 -39 13 -15 25 -24 29 -19 3 6 -4 23 -17 39 -13 15 -25 24 -29 19z"/>
 <path d="M1791 5386 c-7 -8 -8 -17 -3 -20 6 -3 15 1 21 8 7 8 8 17 3 20 -6 3 -15 -1 -21 -8z"/>
 <path d="M6376 5392 c-3 -6 1 -15 8 -21 8 -7 17 -8 20 -3 3 6 -1 15 -8 21 -8 7 -17 8 -20 3z"/>
 <path d="M2020 5314 c-9 -10 -10 -18 -3 -25 8 -8 14 -5 22 9 13 25 -2 38 -19 16z"/>
 <path d="M6147 5324 c-3 -4 -2 -16 4 -26 8 -15 14 -17 22 -9 8 8 7 15 -4 26 -8 9 -18 13 -22 9z"/>
 <path d="M890 5304 c-9 -10 -10 -18 -3 -25 8 -8 14 -5 22 9 13 25 -2 38 -19 16z"/>
 <path d="M7277 5314 c-3 -4 -2 -16 4 -26 8 -15 14 -17 22 -9 8 8 7 15 -4 26 -8 9 -18 13 -22 9z"/>
 <path d="M120 5220 c-6 -11 -8 -20 -4 -20 3 0 1 -6 -5 -14 -8 -10 -9 -16 -1 -21 5 -3 11 -4 11 -1 1 3 2 9 3 14 1 4 7 17 14 29 7 13 8 24 3 28 -6 3 -15 -4 -21 -15z"/>
 <path d="M1972 5227 c-26 -33 -53 -100 -44 -109 7 -7 21 10 41 50 17 34 27 63 22 66 -5 3 -13 0 -19 -7z"/>
 <path d="M6197 5234 c-3 -4 8 -33 24 -66 20 -41 34 -57 41 -50 6 6 1 26 -16 60 -26 52 -39 66 -49 56z"/>
 <path d="M850 5194 c-9 -10 -10 -18 -3 -25 8 -8 14 -5 22 9 13 25 -2 38 -19 16z"/>
 <path d="M7317 5204 c-3 -4 -2 -16 4 -26 8 -15 14 -17 22 -9 8 8 7 15 -4 26 -8 9 -18 13 -22 9z"/>
 <path d="M1681 5172 c-13 -25 2 -38 19 -16 9 10 10 18 3 25 -8 8 -14 5 -22 -9z"/>
 <path d="M6485 5181 c-4 -8 -1 -19 8 -28 19 -20 30 -1 13 22 -10 14 -15 15 -21 6z"/>
 <path d="M90 5111 c-6 -12 -6 -22 -1 -26 6 -3 15 3 21 14 6 12 6 22 1 26 -6 3 -15 -3 -21 -14z"/>
 <path d="M571 5116 c-7 -9 -8 -17 -2 -20 14 -9 63 12 56 24 -9 15 -41 12 -54 -4z"/>
 <path d="M7545 5120 c-3 -6 1 -12 9 -15 9 -3 23 -7 32 -10 24 -8 37 4 23 21 -13 16 -55 19 -64 4z"/>
 <path d="M341 5096 c-13 -14 -20 -29 -17 -35 4 -5 1 -13 -5 -16 -5 -4 -8 -13 -5 -21 3 -7 1 -16 -5 -20 -6 -3 -8 -12 -5 -19 2 -7 -1 -18 -7 -24 -8 -8 -8 -14 0 -22 12 -12 21 -2 29 31 2 11 7 30 10 43 11 44 12 52 13 60 1 4 13 12 27 17 14 6 22 14 19 20 -10 17 -30 11 -54 -14z"/>
 <path d="M1655 5110 c-4 -6 -3 -16 3 -22 6 -6 12 -6 17 2 4 6 3 16 -3 22 -6 6 -12 6 -17 -2z"/>
 <path d="M6515 5110 c-4 -6 -3 -16 3 -22 6 -6 12 -6 17 2 4 6 3 16 -3 22 -6 6 -12 6 -17 -2z"/>
 <path d="M7785 5110 c-4 -6 7 -15 23 -21 17 -6 33 -17 36 -25 6 -16 26 -10 26 7 0 31 -70 63 -85 39z"/>
 <path d="M1627 5039 c-15 -35 -13 -54 4 -43 17 10 31 56 20 67 -6 6 -15 -2 -24 -24z"/>
 <path d="M6536 5062 c-11 -19 19 -76 35 -67 4 3 3 18 -3 33 -16 36 -25 46 -32 34z"/>
 <path d="M71 5016 c-7 -8 -8 -17 -3 -20 6 -3 15 1 21 8 7 8 8 17 3 20 -6 3 -15 -1 -21 -8z"/>
 <path d="M7867 4974 c-3 -4 -2 -16 4 -26 8 -15 14 -17 22 -9 8 8 7 15 -4 26 -8 9 -18 13 -22 9z"/>
 <path d="M1830 4904 c-9 -10 -10 -18 -3 -25 8 -8 14 -5 22 9 13 25 -2 38 -19 16z"/>
 <path d="M6337 4914 c-3 -4 -2 -16 4 -26 8 -15 14 -17 22 -9 8 8 7 15 -4 26 -8 9 -18 13 -22 9z"/>
 <path d="M1571 4872 c-13 -25 2 -38 19 -16 9 10 10 18 3 25 -8 8 -14 5 -22 -9z"/>
 <path d="M6595 4881 c-4 -8 -1 -19 8 -28 19 -20 30 -1 13 22 -10 14 -15 15 -21 6z"/>
 <path d="M7887 4884 c-3 -4 -2 -15 4 -26 6 -11 8 -22 5 -25 -3 -3 -1 -15 5 -25 8 -14 14 -17 22 -9 7 7 7 14 -2 24 -6 8 -9 21 -6 29 6 16 -18 42 -28 32z"/>
 <path d="M1810 4844 c-9 -10 -10 -18 -3 -25 8 -8 14 -5 22 9 13 25 -2 38 -19 16z"/>
 <path d="M6357 4854 c-3 -4 -2 -16 4 -26 8 -15 14 -17 22 -9 8 8 7 15 -4 26 -8 9 -18 13 -22 9z"/>
 <path d="M270 4824 c-9 -10 -10 -18 -3 -25 8 -8 14 -5 22 9 13 25 -2 38 -19 16z"/>
 <path d="M1551 4802 c-13 -25 2 -38 19 -16 9 10 10 18 3 25 -8 8 -14 5 -22 -9z"/>
 <path d="M6615 4811 c-4 -8 -1 -19 8 -28 19 -20 30 -1 13 22 -10 14 -15 15 -21 6z"/>
 <path d="M260 4764 c-9 -10 -10 -18 -3 -25 8 -8 14 -5 22 9 13 25 -2 38 -19 16z"/>
 <path d="M7907 4774 c-3 -4 -2 -15 3 -25 6 -9 7 -24 5 -32 -7 -18 20 -43 30 -27 4 6 2 17 -4 24 -6 7 -9 20 -6 28 6 16 -18 42 -28 32z"/>
 <path d="M1536 4731 c-20 -32 -36 -155 -21 -158 6 -2 10 5 10 15 0 9 4 23 8 30 5 6 5 17 2 22 -4 6 -1 18 6 26 6 8 9 17 6 21 -4 3 -2 12 5 20 8 10 8 17 1 24 -8 8 -13 7 -17 0z"/>
 <path d="M6635 4730 c-4 -6 -2 -17 4 -24 6 -7 8 -16 4 -19 -3 -4 0 -13 6 -21 7 -8 10 -20 6 -26 -3 -5 -3 -16 2 -22 4 -7 8 -21 8 -30 0 -10 5 -17 10 -15 12 3 10 40 -9 126 -7 31 -22 46 -31 31z"/>
 <path d="M250 4704 c-9 -10 -10 -18 -3 -25 8 -8 14 -5 22 9 13 25 -2 38 -19 16z"/>
 <path d="M1760 4664 c-9 -10 -10 -18 -3 -25 8 -8 14 -5 22 9 13 25 -2 38 -19 16z"/>
 <path d="M6407 4674 c-3 -4 -2 -16 4 -26 8 -15 14 -17 22 -9 8 8 7 15 -4 26 -8 9 -18 13 -22 9z"/>
 <path d="M240 4644 c-9 -10 -10 -18 -3 -25 8 -8 14 -5 22 9 13 25 -2 38 -19 16z"/>
 <path d="M7927 4654 c-3 -4 -2 -16 4 -26 8 -15 14 -17 22 -9 8 8 7 15 -4 26 -8 9 -18 13 -22 9z"/>
 <path d="M232 4578 c-14 -14 -16 -35 -3 -43 14 -8 35 35 24 46 -5 5 -14 4 -21 -3z"/>
 <path d="M1740 4574 c-9 -10 -10 -18 -3 -25 8 -8 14 -5 22 9 13 25 -2 38 -19 16z"/>
 <path d="M6427 4584 c-3 -4 -2 -16 4 -26 8 -15 14 -17 22 -9 8 8 7 15 -4 26 -8 9 -18 13 -22 9z"/>
 <path d="M7935 4581 c-8 -14 13 -53 26 -46 13 9 11 31 -5 44 -10 8 -16 9 -21 2z"/>
 <path d="M1495 4530 c-4 -6 -3 -16 3 -22 6 -6 12 -6 17 2 4 6 3 16 -3 22 -6 6 -12 6 -17 -2z"/>
 <path d="M6675 4530 c-4 -6 -3 -16 3 -22 6 -6 12 -6 17 2 4 6 3 16 -3 22 -6 6 -12 6 -17 -2z"/>
 <path d="M1725 4510 c-4 -6 -3 -16 3 -22 6 -6 12 -6 17 2 4 6 3 16 -3 22 -6 6 -12 6 -17 -2z"/>
 <path d="M6445 4510 c-4 -6 -3 -16 3 -22 6 -6 12 -6 17 2 4 6 3 16 -3 22 -6 6 -12 6 -17 -2z"/>
 <path d="M220 4485 c-13 -16 -6 -50 9 -41 12 8 21 45 11 51 -4 3 -13 -2 -20 -10z"/>
 <path d="M7947 4493 c-8 -13 12 -55 23 -48 5 3 10 12 10 19 0 17 -27 40 -33 29z"/>
 <path d="M1485 4460 c-4 -6 -3 -16 3 -22 6 -6 12 -6 17 2 4 6 3 16 -3 22 -6 6 -12 6 -17 -2z"/>
 <path d="M6685 4460 c-4 -6 -3 -16 3 -22 6 -6 12 -6 17 2 4 6 3 16 -3 22 -6 6 -12 6 -17 -2z"/>
 <path d="M1715 4450 c-4 -6 -3 -16 3 -22 6 -6 12 -6 17 2 4 6 3 16 -3 22 -6 6 -12 6 -17 -2z"/>
 <path d="M6455 4450 c-4 -6 -3 -16 3 -22 6 -6 12 -6 17 2 4 6 3 16 -3 22 -6 6 -12 6 -17 -2z"/>
 <path d="M210 4375 c-13 -16 -6 -50 9 -41 12 8 21 45 11 51 -4 3 -13 -2 -20 -10z"/>
 <path d="M1475 4380 c-4 -6 -3 -16 3 -22 6 -6 12 -6 17 2 4 6 3 16 -3 22 -6 6 -12 6 -17 -2z"/>
 <path d="M6695 4380 c-4 -6 -3 -16 3 -22 6 -6 12 -6 17 2 4 6 3 16 -3 22 -6 6 -12 6 -17 -2z"/>
 <path d="M1705 4370 c-4 -6 -3 -16 3 -22 6 -6 12 -6 17 2 4 6 3 16 -3 22 -6 6 -12 6 -17 -2z"/>
 <path d="M6465 4370 c-4 -6 -3 -16 3 -22 6 -6 12 -6 17 2 4 6 3 16 -3 22 -6 6 -12 6 -17 -2z"/>
 <path d="M7957 4373 c-8 -13 12 -55 23 -48 5 3 10 12 10 19 0 17 -27 40 -33 29z"/>
 <path d="M1695 4260 c-4 -6 -3 -16 3 -22 6 -6 12 -6 17 2 4 6 3 16 -3 22 -6 6 -12 6 -17 -2z"/>
 <path d="M6475 4260 c-4 -6 -3 -16 3 -22 6 -6 12 -6 17 2 4 6 3 16 -3 22 -6 6 -12 6 -17 -2z"/>
 <path d="M1464 4246 c-4 -10 -2 -22 4 -28 8 -8 13 -7 18 6 4 10 2 22 -4 28 -8 8 -13 7 -18 -6z"/>
 <path d="M6704 4246 c-4 -10 -2 -22 4 -28 8 -8 13 -7 18 6 4 10 2 22 -4 28 -8 8 -13 7 -18 -6z"/>
 <path d="M202 4188 c-19 -19 -16 -182 3 -198 8 -7 15 -10 15 -6 3 38 1 209 -2 212 -3 2 -10 -2 -16 -8z"/>
 <path d="M7970 4166 c-1 -3 -1 -44 -1 -91 0 -47 0 -88 1 -91 0 -4 7 -1 15 6 11 9 15 33 15 85 0 52 -4 76 -15 85 -8 7 -15 10 -15 6z"/>
 <path d="M1464 3976 c-4 -10 -2 -22 4 -28 8 -8 13 -7 18 6 4 10 2 22 -4 28 -8 8 -13 7 -18 -6z"/>
 <path d="M6704 3976 c-4 -10 -2 -22 4 -28 8 -8 13 -7 18 6 4 10 2 22 -4 28 -8 8 -13 7 -18 -6z"/>
 <path d="M1695 3960 c-4 -6 -3 -16 3 -22 6 -6 12 -6 17 2 4 6 3 16 -3 22 -6 6 -12 6 -17 -2z"/>
 <path d="M6475 3960 c-4 -6 -3 -16 3 -22 6 -6 12 -6 17 2 4 6 3 16 -3 22 -6 6 -12 6 -17 -2z"/>
 <path d="M7865 3961 c-7 -12 12 -24 25 -16 11 7 4 25 -10 25 -5 0 -11 -4 -15 -9z"/>
 <path d="M7745 3911 c-7 -12 12 -24 25 -16 11 7 4 25 -10 25 -5 0 -11 -4 -15 -9z"/>
 <path d="M526 3871 c-9 -15 23 -36 35 -24 8 8 5 14 -9 22 -12 6 -23 7 -26 2z"/>
 <path d="M7635 3866 c-14 -10 -15 -15 -6 -21 8 -4 19 -1 28 8 20 19 1 30 -22 13z"/>
 <path d="M1705 3850 c-4 -6 -3 -16 3 -22 6 -6 12 -6 17 2 4 6 3 16 -3 22 -6 6 -12 6 -17 -2z"/>
 <path d="M6465 3850 c-4 -6 -3 -16 3 -22 6 -6 12 -6 17 2 4 6 3 16 -3 22 -6 6 -12 6 -17 -2z"/>
 <path d="M1475 3840 c-4 -6 -3 -16 3 -22 6 -6 12 -6 17 2 4 6 3 16 -3 22 -6 6 -12 6 -17 -2z"/>
 <path d="M6695 3840 c-4 -6 -3 -16 3 -22 6 -6 12 -6 17 2 4 6 3 16 -3 22 -6 6 -12 6 -17 -2z"/>
 <path d="M647 3823 c-3 -5 6 -21 18 -38 20 -24 25 -26 30 -13 4 10 4 22 0 27 -9 16 -43 32 -48 24z"/>
 <path d="M7510 3810 c-21 -21 -25 -36 -12 -44 5 -3 18 8 30 24 26 34 12 50 -18 20z"/>
 <path d="M1715 3770 c-4 -6 -3 -16 3 -22 6 -6 12 -6 17 2 4 6 3 16 -3 22 -6 6 -12 6 -17 -2z"/>
 <path d="M6455 3770 c-4 -6 -3 -16 3 -22 6 -6 12 -6 17 2 4 6 3 16 -3 22 -6 6 -12 6 -17 -2z"/>
 <path d="M1485 3760 c-4 -6 -3 -16 3 -22 6 -6 12 -6 17 2 4 6 3 16 -3 22 -6 6 -12 6 -17 -2z"/>
 <path d="M6685 3760 c-4 -6 -3 -16 3 -22 6 -6 12 -6 17 2 4 6 3 16 -3 22 -6 6 -12 6 -17 -2z"/>
 <path d="M1725 3710 c-4 -6 -3 -16 3 -22 6 -6 12 -6 17 2 4 6 3 16 -3 22 -6 6 -12 6 -17 -2z"/>
 <path d="M6445 3710 c-4 -6 -3 -16 3 -22 6 -6 12 -6 17 2 4 6 3 16 -3 22 -6 6 -12 6 -17 -2z"/>
 <path d="M1495 3690 c-4 -6 -3 -16 3 -22 6 -6 12 -6 17 2 4 6 3 16 -3 22 -6 6 -12 6 -17 -2z"/>
 <path d="M6675 3690 c-4 -6 -3 -16 3 -22 6 -6 12 -6 17 2 4 6 3 16 -3 22 -6 6 -12 6 -17 -2z"/>
 <path d="M685 3680 c-4 -6 -3 -16 3 -22 6 -6 12 -6 17 2 4 6 3 16 -3 22 -6 6 -12 6 -17 -2z"/>
 <path d="M7485 3680 c-4 -6 -3 -16 3 -22 6 -6 12 -6 17 2 4 6 3 16 -3 22 -6 6 -12 6 -17 -2z"/>
 <path d="M1735 3651 c-4 -8 -1 -19 8 -28 19 -20 30 -1 13 22 -10 14 -15 15 -21 6z"/>
 <path d="M6431 3642 c-13 -25 2 -38 19 -16 9 10 10 18 3 25 -8 8 -14 5 -22 -9z"/>
 <path d="M1507 3633 c-5 -8 -2 -32 8 -85 14 -79 22 -95 38 -79 7 7 7 14 -1 24 -7 8 -9 17 -5 20 3 4 1 13 -6 20 -6 8 -9 21 -5 30 3 8 0 18 -6 22 -6 4 -8 15 -5 25 6 18 -9 37 -18 23z"/>
 <path d="M6665 3630 c-3 -5 -3 -15 0 -20 4 -6 1 -17 -5 -25 -6 -8 -9 -19 -5 -25 4 -6 1 -18 -6 -26 -6 -8 -9 -17 -6 -21 4 -3 2 -12 -5 -20 -8 -10 -8 -17 -1 -24 18 -18 28 11 47 128 5 32 -7 53 -19 33z"/>
 <path d="M7475 3610 c-4 -6 -3 -16 3 -22 6 -6 12 -6 17 2 4 6 3 16 -3 22 -6 6 -12 6 -17 -2z"/>
 <path d="M1755 3561 c-4 -8 -1 -19 8 -28 19 -20 30 -1 13 22 -10 14 -15 15 -21 6z"/>
 <path d="M6411 3552 c-13 -25 2 -38 19 -16 9 10 10 18 3 25 -8 8 -14 5 -22 -9z"/>
 <path d="M705 3540 c-4 -6 -3 -16 3 -22 6 -6 12 -6 17 2 4 6 3 16 -3 22 -6 6 -12 6 -17 -2z"/>
 <path d="M7465 3540 c-4 -6 -3 -16 3 -22 6 -6 12 -6 17 2 4 6 3 16 -3 22 -6 6 -12 6 -17 -2z"/>
 <path d="M715 3480 c-4 -6 -3 -16 3 -22 6 -6 12 -6 17 2 4 6 3 16 -3 22 -6 6 -12 6 -17 -2z"/>
 <path d="M7455 3480 c-4 -6 -3 -16 3 -22 6 -6 12 -6 17 2 4 6 3 16 -3 22 -6 6 -12 6 -17 -2z"/>
 <path d="M1547 3424 c-3 -4 -2 -16 4 -26 8 -15 14 -17 22 -9 8 8 7 15 -4 26 -8 9 -18 13 -22 9z"/>
 <path d="M6620 3414 c-9 -10 -10 -18 -3 -25 8 -8 14 -5 22 9 13 25 -2 38 -19 16z"/>
 <path d="M1805 3381 c-4 -8 -1 -19 8 -28 19 -20 30 -1 13 22 -10 14 -15 15 -21 6z"/>
 <path d="M6361 3372 c-13 -25 2 -38 19 -16 9 10 10 18 3 25 -8 8 -14 5 -22 -9z"/>
 <path d="M1567 3354 c-3 -4 -2 -16 4 -26 8 -15 14 -17 22 -9 8 8 7 15 -4 26 -8 9 -18 13 -22 9z"/>
 <path d="M6600 3344 c-9 -10 -10 -18 -3 -25 8 -8 14 -5 22 9 13 25 -2 38 -19 16z"/>
 <path d="M745 3330 c-4 -6 -3 -16 3 -22 6 -6 12 -6 17 2 4 6 3 16 -3 22 -6 6 -12 6 -17 -2z"/>
 <path d="M7425 3330 c-4 -6 -3 -16 3 -22 6 -6 12 -6 17 2 4 6 3 16 -3 22 -6 6 -12 6 -17 -2z"/>
 <path d="M1825 3321 c-4 -8 -1 -19 8 -28 19 -20 30 -1 13 22 -10 14 -15 15 -21 6z"/>
 <path d="M6341 3312 c-13 -25 2 -38 19 -16 9 10 10 18 3 25 -8 8 -14 5 -22 -9z"/>
 <path d="M66 3202 c-3 -6 1 -15 8 -21 8 -7 17 -8 20 -3 3 6 -1 15 -8 21 -8 7 -17 8 -20 3z"/>
 <path d="M1617 3203 c-2 -5 2 -23 10 -42 17 -41 40 -30 24 11 -11 28 -27 43 -34 31z"/>
 <path d="M6551 3197 c-14 -18 -18 -51 -7 -55 12 -4 37 56 27 63 -5 2 -14 -1 -20 -8z"/>
 <path d="M7395 3200 c-4 -6 -3 -16 3 -22 6 -6 12 -6 17 2 4 6 3 16 -3 22 -6 6 -12 6 -17 -2z"/>
 <path d="M2875 3181 c-7 -12 12 -24 25 -16 11 7 4 25 -10 25 -5 0 -11 -4 -15 -9z"/>
 <path d="M5295 3181 c-7 -12 12 -24 25 -16 11 7 4 25 -10 25 -5 0 -11 -4 -15 -9z"/>
 <path d="M795 3130 c-4 -6 -3 -16 3 -22 6 -6 12 -6 17 2 4 6 3 16 -3 22 -6 6 -12 6 -17 -2z"/>
 <path d="M5407 3132 c-4 -5 9 -23 27 -41 19 -18 36 -29 39 -23 4 5 -9 23 -27 41 -19 18 -36 29 -39 23z"/>
 <path d="M7375 3130 c-4 -6 -3 -16 3 -22 6 -6 12 -6 17 2 4 6 3 16 -3 22 -6 6 -12 6 -17 -2z"/>
 <path d="M2756 3111 c-10 -11 -13 -22 -8 -25 5 -3 17 3 26 13 10 11 13 22 8 25 -5 3 -17 -3 -26 -13z"/>
 <path d="M87 3113 c-4 -6 0 -18 7 -28 8 -11 16 -14 19 -8 4 6 0 18 -7 28 -8 11 -16 14 -19 8z"/>
 <path d="M1655 3110 c-4 -6 -3 -16 3 -22 6 -6 12 -6 17 2 4 6 3 16 -3 22 -6 6 -12 6 -17 -2z"/>
 <path d="M6515 3110 c-4 -6 -3 -16 3 -22 6 -6 12 -6 17 2 4 6 3 16 -3 22 -6 6 -12 6 -17 -2z"/>
 <path d="M1925 3080 c-3 -5 4 -29 16 -52 27 -54 39 -69 50 -62 8 5 -45 124 -56 124 -2 0 -7 -4 -10 -10z"/>
 <path d="M6221 3032 c-17 -34 -27 -63 -22 -66 18 -12 79 100 63 116 -7 7 -21 -10 -41 -50z"/>
 <path d="M816 3062 c-6 -10 31 -129 47 -149 23 -30 24 3 1 69 -25 76 -38 96 -48 80z"/>
 <path d="M7356 3061 c-16 -25 -34 -91 -27 -96 19 -11 59 81 42 98 -5 5 -11 5 -15 -2z"/>
 <path d="M1677 3054 c-3 -4 -2 -16 4 -26 8 -15 14 -17 22 -9 8 8 7 15 -4 26 -8 9 -18 13 -22 9z"/>
 <path d="M6490 3044 c-9 -10 -10 -18 -3 -25 8 -8 14 -5 22 9 13 25 -2 38 -19 16z"/>
 <path d="M107 3034 c-3 -4 -1 -16 5 -28 7 -11 12 -24 13 -28 0 -5 3 -8 8 -8 6 0 9 5 6 13 0 1 -2 10 -4 21 -4 23 -19 39 -28 30z"/>
 <path d="M5485 3030 c-4 -6 -3 -16 3 -22 6 -6 12 -6 17 2 4 6 3 16 -3 22 -6 6 -12 6 -17 -2z"/>
 <path d="M2015 2911 c-4 -8 -1 -19 8 -28 19 -20 30 -1 13 22 -10 14 -15 15 -21 6z"/>
 <path d="M6151 2902 c-13 -25 2 -38 19 -16 9 10 10 18 3 25 -8 8 -14 5 -22 -9z"/>
 <path d="M7301 2902 c-13 -25 2 -38 19 -16 9 10 10 18 3 25 -8 8 -14 5 -22 -9z"/>
 <path d="M2047 2854 c-3 -6 4 -23 17 -39 13 -15 25 -24 29 -19 3 6 -4 23 -17 39 -13 15 -25 24 -29 19z"/>
 <path d="M6111 2831 c-12 -16 -17 -32 -12 -35 5 -4 19 7 30 23 12 16 17 32 12 35 -5 4 -19 -7 -30 -23z"/>
 <path d="M1786 2832 c-3 -6 1 -15 8 -21 8 -7 17 -8 20 -3 3 6 -1 15 -8 21 -8 7 -17 8 -20 3z"/>
 <path d="M6381 2826 c-7 -8 -8 -17 -3 -20 6 -3 15 1 21 8 7 8 8 17 3 20 -6 3 -15 -1 -21 -8z"/>
 <path d="M7274 2826 c-4 -10 -2 -22 4 -28 8 -8 13 -7 18 6 4 10 2 22 -4 28 -8 8 -13 7 -18 -6z"/>
 <path d="M5442 2750 c-47 -54 -43 -78 4 -27 45 48 56 65 46 70 -4 3 -27 -16 -50 -43z"/>
 <path d="M2716 2782 c-3 -6 1 -15 8 -21 8 -7 17 -8 20 -3 3 6 -1 15 -8 21 -8 7 -17 8 -20 3z"/>
 <path d="M1826 2762 c-3 -6 1 -15 8 -21 8 -7 17 -8 20 -3 3 6 -1 15 -8 21 -8 7 -17 8 -20 3z"/>
 <path d="M6341 2756 c-7 -8 -8 -17 -3 -20 6 -3 15 1 21 8 7 8 8 17 3 20 -6 3 -15 -1 -21 -8z"/>
 <path d="M806 2731 c-10 -11 -13 -22 -8 -25 5 -3 17 3 26 13 10 11 13 22 8 25 -5 3 -17 -3 -26 -13z"/>
 <path d="M7356 2742 c-3 -5 3 -17 13 -26 11 -10 22 -13 25 -8 3 5 -3 17 -13 26 -11 10 -22 13 -25 8z"/>
 <path d="M2126 2732 c-3 -6 1 -15 8 -21 8 -7 17 -8 20 -3 3 6 -1 15 -8 21 -8 7 -17 8 -20 3z"/>
 <path d="M6041 2726 c-7 -8 -8 -17 -3 -20 6 -3 15 1 21 8 7 8 8 17 3 20 -6 3 -15 -1 -21 -8z"/>
 <path d="M2796 2702 c-3 -6 1 -15 8 -21 8 -7 17 -8 20 -3 3 6 -1 15 -8 21 -8 7 -17 8 -20 3z"/>
 <path d="M2176 2662 c-3 -6 1 -15 8 -21 8 -7 17 -8 20 -3 3 6 -1 15 -8 21 -8 7 -17 8 -20 3z"/>
 <path d="M5295 2661 c-7 -12 12 -24 25 -16 11 7 4 25 -10 25 -5 0 -11 -4 -15 -9z"/>
 <path d="M5991 2656 c-7 -8 -8 -17 -3 -20 6 -3 15 1 21 8 7 8 8 17 3 20 -6 3 -15 -1 -21 -8z"/>
 <path d="M1896 2652 c-3 -6 1 -15 8 -21 8 -7 17 -8 20 -3 3 6 -1 15 -8 21 -8 7 -17 8 -20 3z"/>
 <path d="M6271 2646 c-7 -8 -8 -17 -3 -20 6 -3 15 1 21 8 7 8 8 17 3 20 -6 3 -15 -1 -21 -8z"/>
 <path d="M686 2621 c-10 -11 -13 -22 -8 -25 5 -3 17 3 26 13 10 11 13 22 8 25 -5 3 -17 -3 -26 -13z"/>
 <path d="M7476 2632 c-3 -5 3 -17 13 -26 11 -10 22 -13 25 -8 3 5 -3 17 -13 26 -11 10 -22 13 -25 8z"/>
 <path d="M2216 2612 c-3 -6 1 -15 8 -21 8 -7 17 -8 20 -3 3 6 -1 15 -8 21 -8 7 -17 8 -20 3z"/>
 <path d="M5951 2606 c-7 -8 -8 -17 -3 -20 6 -3 15 1 21 8 7 8 8 17 3 20 -6 3 -15 -1 -21 -8z"/>
 <path d="M1946 2582 c-3 -6 1 -15 8 -21 8 -7 17 -8 20 -3 3 6 -1 15 -8 21 -8 7 -17 8 -20 3z"/>
 <path d="M6221 2576 c-7 -8 -8 -17 -3 -20 6 -3 15 1 21 8 7 8 8 17 3 20 -6 3 -15 -1 -21 -8z"/>
 <path d="M2256 2562 c-3 -6 1 -15 8 -21 8 -7 17 -8 20 -3 3 6 -1 15 -8 21 -8 7 -17 8 -20 3z"/>
 <path d="M5911 2556 c-7 -8 -8 -17 -3 -20 6 -3 15 1 21 8 7 8 8 17 3 20 -6 3 -15 -1 -21 -8z"/>
 <path d="M556 2501 c-15 -16 -23 -31 -18 -35 5 -3 21 8 36 23 15 16 23 31 18 35 -5 3 -21 -8 -36 -23z"/>
 <path d="M7596 2522 c-7 -12 28 -44 39 -35 4 5 -2 -11 -14 -34 -11 -23 -17 -44 -12 -48 10 -5 16 2 39 44 12 23 10 28 -16 54 -16 16 -32 25 -36 19z"/>
 <path d="M2006 2502 c-3 -6 1 -15 8 -21 8 -7 17 -8 20 -3 3 6 -1 15 -8 21 -8 7 -17 8 -20 3z"/>
 <path d="M6161 2496 c-7 -8 -8 -17 -3 -20 6 -3 15 1 21 8 7 8 8 17 3 20 -6 3 -15 -1 -21 -8z"/>
 <path d="M2326 2482 c-3 -5 5 -19 18 -31 13 -13 26 -18 30 -13 3 5 -5 19 -18 31 -13 13 -26 18 -30 13z"/>
 <path d="M5831 2466 c-13 -13 -18 -26 -13 -30 5 -3 19 5 31 18 13 13 18 26 13 30 -5 3 -19 -5 -31 -18z"/>
 <path d="M555 2440 c-9 -14 23 -62 35 -55 6 4 4 18 -5 36 -17 32 -21 34 -30 19z"/>
 <path d="M2096 2392 c-3 -6 1 -15 8 -21 8 -7 17 -8 20 -3 3 6 -1 15 -8 21 -8 7 -17 8 -20 3z"/>
 <path d="M6071 2386 c-7 -8 -8 -17 -3 -20 6 -3 15 1 21 8 7 8 8 17 3 20 -6 3 -15 -1 -21 -8z"/>
 <path d="M2436 2372 c-3 -5 8 -21 23 -36 16 -15 31 -23 35 -18 3 5 -8 21 -23 36 -16 15 -31 23 -35 18z"/>
 <path d="M5716 2351 c-15 -16 -23 -31 -18 -35 5 -3 21 8 36 23 15 16 23 31 18 35 -5 3 -21 -8 -36 -23z"/>
 <path d="M2536 2282 c-3 -6 1 -15 8 -21 8 -7 17 -8 20 -3 3 6 -1 15 -8 21 -8 7 -17 8 -20 3z"/>
 <path d="M5631 2276 c-7 -8 -8 -17 -3 -20 6 -3 15 1 21 8 7 8 8 17 3 20 -6 3 -15 -1 -21 -8z"/>
 <path d="M2216 2262 c-3 -5 5 -19 18 -31 13 -13 26 -18 30 -13 3 5 -5 19 -18 31 -13 13 -26 18 -30 13z"/>
 <path d="M5941 2246 c-13 -13 -18 -26 -13 -30 5 -3 19 5 31 18 13 13 18 26 13 30 -5 3 -19 -5 -31 -18z"/>
 <path d="M655 2240 c-9 -14 23 -62 35 -55 6 4 4 18 -5 36 -17 32 -21 34 -30 19z"/>
 <path d="M2586 2242 c-3 -6 1 -15 8 -21 8 -7 17 -8 20 -3 3 6 -1 15 -8 21 -8 7 -17 8 -20 3z"/>
 <path d="M5581 2236 c-7 -8 -8 -17 -3 -20 6 -3 15 1 21 8 7 8 8 17 3 20 -6 3 -15 -1 -21 -8z"/>
 <path d="M2636 2202 c-3 -6 1 -15 8 -21 8 -7 17 -8 20 -3 3 6 -1 15 -8 21 -8 7 -17 8 -20 3z"/>
 <path d="M5531 2196 c-7 -8 -8 -17 -3 -20 6 -3 15 1 21 8 7 8 8 17 3 20 -6 3 -15 -1 -21 -8z"/>
 <path d="M7491 2192 c-13 -25 2 -38 19 -16 9 10 10 18 3 25 -8 8 -14 5 -22 -9z"/>
 <path d="M2676 2171 c-4 -5 7 -19 23 -30 32 -23 52 -13 23 11 -27 24 -40 29 -46 19z"/>
 <path d="M5474 2157 c-36 -31 -17 -43 21 -13 18 14 24 25 17 30 -6 3 -23 -4 -38 -17z"/>
 <path d="M715 2131 c-4 -8 -1 -19 8 -28 19 -20 30 -1 13 22 -10 14 -15 15 -21 6z"/>
 <path d="M7446 2112 c-20 -39 -3 -52 20 -17 12 18 14 29 6 37 -7 7 -15 1 -26 -20z"/>
 <path d="M2366 2122 c-3 -6 1 -15 8 -21 8 -7 17 -8 20 -3 3 6 -1 15 -8 21 -8 7 -17 8 -20 3z"/>
 <path d="M5801 2116 c-7 -8 -8 -17 -3 -20 6 -3 15 1 21 8 7 8 8 17 3 20 -6 3 -15 -1 -21 -8z"/>
 <path d="M2795 2090 c-8 -13 55 -54 66 -43 7 7 -2 17 -25 31 -20 12 -38 17 -41 12z"/>
 <path d="M5352 2078 c-22 -14 -30 -24 -23 -31 12 -12 74 30 66 44 -4 5 -7 9 -8 8 -1 0 -17 -10 -35 -21z"/>
 <path d="M746 2072 c-3 -6 1 -15 8 -21 8 -7 17 -8 20 -3 3 6 -1 15 -8 21 -8 7 -17 8 -20 3z"/>
 <path d="M7411 2052 c-13 -25 2 -38 19 -16 9 10 10 18 3 25 -8 8 -14 5 -22 -9z"/>
 <path d="M2876 2041 c-9 -15 23 -36 35 -24 8 8 5 14 -9 22 -12 6 -23 7 -26 2z"/>
 <path d="M5285 2036 c-14 -10 -15 -15 -6 -21 8 -4 19 -1 28 8 20 19 1 30 -22 13z"/>
 <path d="M775 2031 c-4 -8 -1 -19 8 -28 19 -20 30 -1 13 22 -10 14 -15 15 -21 6z"/>
 <path d="M2476 2032 c-3 -6 1 -15 8 -21 8 -7 17 -8 20 -3 3 6 -1 15 -8 21 -8 7 -17 8 -20 3z"/>
 <path d="M5691 2026 c-7 -8 -8 -17 -3 -20 6 -3 15 1 21 8 7 8 8 17 3 20 -6 3 -15 -1 -21 -8z"/>
 <path d="M805 1981 c-4 -8 -1 -19 8 -28 19 -20 30 -1 13 22 -10 14 -15 15 -21 6z"/>
 <path d="M2986 1981 c-12 -18 81 -68 96 -53 7 7 -6 19 -40 36 -28 14 -53 22 -56 17z"/>
 <path d="M5146 1963 c-32 -16 -45 -28 -38 -35 10 -10 84 22 96 41 13 20 -11 18 -58 -6z"/>
 <path d="M2545 1971 c-6 -11 29 -33 39 -24 7 7 -12 33 -25 33 -4 0 -10 -4 -14 -9z"/>
 <path d="M5611 1967 c-6 -8 -8 -17 -5 -20 10 -9 45 13 39 24 -9 13 -21 11 -34 -4z"/>
 <path d="M846 1912 c-3 -6 1 -15 8 -21 8 -7 17 -8 20 -3 3 6 -1 15 -8 21 -8 7 -17 8 -20 3z"/>
 <path d="M2745 1841 c-6 -11 29 -33 39 -24 7 7 -12 33 -25 33 -4 0 -10 -4 -14 -9z"/>
 <path d="M5411 1837 c-6 -8 -8 -17 -5 -20 10 -9 45 13 39 24 -9 13 -21 11 -34 -4z"/>
 <path d="M3346 1831 c-9 -15 23 -36 35 -24 8 8 5 14 -9 22 -12 6 -23 7 -26 2z"/>
 <path d="M4815 1826 c-14 -10 -15 -15 -6 -21 8 -4 19 -1 28 8 20 19 1 30 -22 13z"/>
 <path d="M907 1824 c-3 -6 4 -23 17 -39 14 -18 25 -24 30 -17 3 6 -4 23 -17 38 -13 15 -26 23 -30 18z"/>
 <path d="M3416 1811 c-9 -15 23 -36 35 -24 8 8 5 14 -9 22 -12 6 -23 7 -26 2z"/>
 <path d="M4745 1806 c-14 -10 -15 -15 -6 -21 8 -4 19 -1 28 8 20 19 1 30 -22 13z"/>
 <path d="M2815 1801 c-6 -11 29 -33 39 -24 7 7 -12 33 -25 33 -4 0 -10 -4 -14 -9z"/>
 <path d="M5341 1797 c-6 -8 -8 -17 -5 -20 10 -9 45 13 39 24 -9 13 -21 11 -34 -4z"/>
 <path d="M3486 1791 c-9 -15 23 -36 35 -24 8 8 5 14 -9 22 -12 6 -23 7 -26 2z"/>
 <path d="M4675 1786 c-14 -10 -15 -15 -6 -21 8 -4 19 -1 28 8 20 19 1 30 -22 13z"/>
 <path d="M7241 1786 c-7 -8 -8 -17 -3 -20 6 -3 15 1 21 8 7 8 8 17 3 20 -6 3 -15 -1 -21 -8z"/>
 <path d="M3545 1771 c-6 -11 13 -26 22 -17 3 3 12 1 19 -5 7 -6 18 -8 24 -4 14 9 1 28 -16 21 -7 -3 -16 -1 -19 4 -8 13 -22 13 -30 1z"/>
 <path d="M4616 1771 c-4 -6 -13 -8 -20 -5 -17 6 -31 -12 -16 -21 5 -3 16 -3 23 2 6 4 17 8 22 8 14 0 19 19 7 23 -6 2 -13 -1 -16 -7z"/>
 <path d="M956 1752 c-3 -6 1 -15 8 -21 8 -7 17 -8 20 -3 3 6 -1 15 -8 21 -8 7 -17 8 -20 3z"/>
 <path d="M3635 1750 c-8 -12 20 -24 35 -15 6 3 8 11 5 16 -8 12 -32 12 -40 -1z"/>
 <path d="M4515 1750 c-8 -12 20 -24 35 -15 6 3 8 11 5 16 -8 12 -32 12 -40 -1z"/>
 <path d="M3695 1740 c-8 -12 20 -24 35 -15 6 3 8 11 5 16 -8 12 -32 12 -40 -1z"/>
 <path d="M4455 1740 c-8 -12 20 -24 35 -15 6 3 8 11 5 16 -8 12 -32 12 -40 -1z"/>
 <path d="M3755 1730 c-8 -12 20 -24 35 -15 6 3 8 11 5 16 -8 12 -32 12 -40 -1z"/>
 <path d="M4395 1730 c-8 -12 20 -24 35 -15 6 3 8 11 5 16 -8 12 -32 12 -40 -1z"/>
 <path d="M2975 1721 c-6 -11 29 -33 39 -24 7 7 -12 33 -25 33 -4 0 -10 -4 -14 -9z"/>
 <path d="M3835 1720 c-3 -5 0 -13 9 -16 21 -8 61 -1 61 11 0 14 -62 19 -70 5z"/>
 <path d="M4285 1720 c-3 -5 0 -13 9 -16 21 -8 61 -1 61 11 0 14 -62 19 -70 5z"/>
 <path d="M5181 1717 c-6 -8 -8 -17 -5 -20 10 -9 45 13 39 24 -9 13 -21 11 -34 -4z"/>
 <path d="M7191 1716 c-7 -8 -8 -17 -3 -20 6 -3 15 1 21 8 7 8 8 17 3 20 -6 3 -15 -1 -21 -8z"/>
 <path d="M3965 1710 c-3 -5 0 -13 8 -16 23 -9 112 0 110 11 -4 14 -110 19 -118 5z"/>
 <path d="M4105 1710 c-3 -5 0 -13 8 -16 23 -9 112 0 110 11 -4 14 -110 19 -118 5z"/>
 <path d="M3065 1681 c-6 -11 29 -33 39 -24 7 7 -12 33 -25 33 -4 0 -10 -4 -14 -9z"/>
 <path d="M5091 1677 c-6 -8 -8 -17 -5 -20 10 -9 45 13 39 24 -9 13 -21 11 -34 -4z"/>
 <path d="M7161 1676 c-7 -8 -8 -17 -3 -20 6 -3 15 1 21 8 7 8 8 17 3 20 -6 3 -15 -1 -21 -8z"/>
 <path d="M1016 1672 c-3 -6 1 -15 8 -21 8 -7 17 -8 20 -3 3 6 -1 15 -8 21 -8 7 -17 8 -20 3z"/>
 <path d="M6535 1651 c-2 -5 1 -13 8 -18 17 -14 79 -34 85 -28 3 3 10 1 16 -4 6 -5 89 -34 185 -65 119 -38 178 -53 186 -46 6 5 14 8 17 5 3 -3 11 1 17 9 7 8 8 17 3 20 -6 3 -15 0 -21 -8 -9 -11 -42 -3 -189 45 -97 33 -186 61 -197 63 -11 3 -39 11 -62 20 -23 8 -45 11 -48 7z"/>
 <path d="M1392 1575 c-122 -40 -225 -69 -228 -64 -3 5 -10 7 -15 3 -18 -11 11 -33 39 -29 24 3 386 116 422 132 8 3 21 7 27 7 20 2 15 21 -5 22 -10 1 -118 -31 -240 -71z"/>
 <path d="M3195 1631 c-7 -12 3 -18 70 -41 52 -18 80 -14 52 7 -9 8 -102 43 -113 43 -2 0 -5 -4 -9 -9z"/>
 <path d="M4930 1622 c-57 -21 -72 -31 -65 -42 7 -12 130 32 128 45 -2 15 -15 15 -63 -3z"/>
 <path d="M7121 1626 c-7 -8 -8 -17 -3 -20 6 -3 15 1 21 8 7 8 8 17 3 20 -6 3 -15 -1 -21 -8z"/>
 <path d="M1086 1582 c-3 -5 3 -17 13 -26 11 -10 22 -13 25 -8 3 5 -3 17 -13 26 -11 10 -22 13 -25 8z"/>
 <path d="M7081 1576 c-7 -8 -8 -17 -3 -20 6 -3 15 1 21 8 7 8 8 17 3 20 -6 3 -15 -1 -21 -8z"/>
 <path d="M3555 1531 c-7 -12 12 -24 25 -16 11 7 4 25 -10 25 -5 0 -11 -4 -15 -9z"/>
 <path d="M4605 1531 c-7 -12 12 -24 25 -16 11 7 4 25 -10 25 -5 0 -11 -4 -15 -9z"/>
 <path d="M1796 1512 c-3 -6 1 -15 8 -21 8 -7 17 -8 20 -3 3 6 -1 15 -8 21 -8 7 -17 8 -20 3z"/>
 <path d="M3665 1511 c-7 -12 12 -24 25 -16 11 7 4 25 -10 25 -5 0 -11 -4 -15 -9z"/>
 <path d="M4495 1511 c-7 -12 12 -24 25 -16 11 7 4 25 -10 25 -5 0 -11 -4 -15 -9z"/>
 <path d="M6371 1506 c-7 -8 -8 -17 -3 -20 6 -3 15 1 21 8 7 8 8 17 3 20 -6 3 -15 -1 -21 -8z"/>
 <path d="M3825 1491 c-7 -12 12 -24 25 -16 11 7 4 25 -10 25 -5 0 -11 -4 -15 -9z"/>
 <path d="M4335 1491 c-7 -12 12 -24 25 -16 11 7 4 25 -10 25 -5 0 -11 -4 -15 -9z"/>
 <path d="M3975 1480 c-8 -12 20 -24 35 -15 6 3 8 11 5 16 -8 12 -32 12 -40 -1z"/>
 <path d="M4175 1480 c-8 -12 20 -24 35 -15 6 3 8 11 5 16 -8 12 -32 12 -40 -1z"/>
 <path d="M926 1442 c-3 -5 3 -17 13 -26 11 -10 22 -13 25 -8 3 5 -3 17 -13 26 -11 10 -22 13 -25 8z"/>
 <path d="M1876 1442 c-3 -6 1 -15 8 -21 8 -7 17 -8 20 -3 3 6 -1 15 -8 21 -8 7 -17 8 -20 3z"/>
 <path d="M6291 1436 c-7 -8 -8 -17 -3 -20 6 -3 15 1 21 8 7 8 8 17 3 20 -6 3 -15 -1 -21 -8z"/>
 <path d="M7236 1431 c-10 -11 -13 -22 -8 -25 5 -3 17 3 26 13 10 11 13 22 8 25 -5 3 -17 -3 -26 -13z"/>
 <path d="M965 1391 c-7 -12 12 -24 25 -16 11 7 4 25 -10 25 -5 0 -11 -4 -15 -9z"/>
 <path d="M7195 1391 c-7 -12 12 -24 25 -16 11 7 4 25 -10 25 -5 0 -11 -4 -15 -9z"/>
 <path d="M6015 1226 c-15 -13 -24 -25 -19 -29 6 -3 23 4 39 17 15 13 24 25 19 29 -6 3 -23 -4 -39 -17z"/>
 <path d="M2166 1222 c-3 -6 1 -15 8 -21 8 -7 17 -8 20 -3 3 6 -1 15 -8 21 -8 7 -17 8 -20 3z"/>
 <path d="M2256 1161 c-9 -15 23 -36 35 -24 8 8 5 14 -9 22 -12 6 -23 7 -26 2z"/>
 <path d="M5905 1156 c-14 -10 -15 -15 -6 -21 8 -4 19 -1 28 8 20 19 1 30 -22 13z"/>
 <path d="M2334 1106 c-4 -10 -2 -22 4 -28 8 -8 13 -7 18 6 4 10 2 22 -4 28 -8 8 -13 7 -18 -6z"/>
 <path d="M5834 1106 c-4 -10 -2 -22 4 -28 8 -8 13 -7 18 6 4 10 2 22 -4 28 -8 8 -13 7 -18 -6z"/>
 <path d="M2325 1030 c-4 -6 -3 -16 3 -22 6 -6 12 -6 17 2 4 6 3 16 -3 22 -6 6 -12 6 -17 -2z"/>
 <path d="M1346 1012 c-3 -6 1 -15 8 -21 8 -7 17 -8 20 -3 3 6 -1 15 -8 21 -8 7 -17 8 -20 3z"/>
 <path d="M6821 1006 c-7 -8 -8 -17 -3 -20 6 -3 15 1 21 8 7 8 8 17 3 20 -6 3 -15 -1 -21 -8z"/>
 <path d="M2315 960 c-4 -6 -3 -16 3 -22 6 -6 12 -6 17 2 4 6 3 16 -3 22 -6 6 -12 6 -17 -2z"/>
 <path d="M5855 960 c-4 -6 -3 -16 3 -22 6 -6 12 -6 17 2 4 6 3 16 -3 22 -6 6 -12 6 -17 -2z"/>
 <path d="M2305 880 c-4 -6 -3 -16 3 -22 6 -6 12 -6 17 2 4 6 3 16 -3 22 -6 6 -12 6 -17 -2z"/>
 <path d="M2295 810 c-4 -6 -3 -16 3 -22 6 -6 12 -6 17 2 4 6 3 16 -3 22 -6 6 -12 6 -17 -2z"/>
 <path d="M5875 810 c-4 -6 -3 -16 3 -22 6 -6 12 -6 17 2 4 6 3 16 -3 22 -6 6 -12 6 -17 -2z"/>
 <path d="M2285 730 c-4 -6 -3 -16 3 -22 6 -6 12 -6 17 2 4 6 3 16 -3 22 -6 6 -12 6 -17 -2z"/>
 <path d="M2275 660 c-4 -6 -3 -16 3 -22 6 -6 12 -6 17 2 4 6 3 16 -3 22 -6 6 -12 6 -17 -2z"/>
 <path d="M5895 660 c-4 -6 -3 -16 3 -22 6 -6 12 -6 17 2 4 6 3 16 -3 22 -6 6 -12 6 -17 -2z"/>
 <path d="M3735 641 c-7 -12 12 -24 25 -16 11 7 4 25 -10 25 -5 0 -11 -4 -15 -9z"/>
 <path d="M4425 641 c-7 -12 12 -24 25 -16 11 7 4 25 -10 25 -5 0 -11 -4 -15 -9z"/>
 <path d="M3845 631 c-7 -12 12 -24 25 -16 11 7 4 25 -10 25 -5 0 -11 -4 -15 -9z"/>
 <path d="M4305 630 c-8 -12 20 -24 35 -15 6 3 8 11 5 16 -8 12 -32 12 -40 -1z"/>
 <path d="M5836 578 c-25 -13 -35 -23 -28 -30 10 -10 65 12 77 31 11 19 -11 19 -49 -1z"/>
 <path d="M2326 581 c-12 -18 100 -79 116 -63 7 7 -10 21 -50 41 -34 17 -63 27 -66 22z"/>
 <path d="M4545 581 c-4 -8 -1 -19 8 -28 19 -20 30 -1 13 22 -10 14 -15 15 -21 6z"/>
 <path d="M3621 566 c-7 -8 -8 -17 -3 -20 6 -3 15 1 21 8 7 8 8 17 3 20 -6 3 -15 -1 -21 -8z"/>
 <path d="M5731 526 c-9 -10 -9 -16 -1 -21 13 -8 42 14 34 26 -8 13 -20 11 -33 -5z"/>
 <path d="M3571 492 c-13 -25 2 -38 19 -16 9 10 10 18 3 25 -8 8 -14 5 -22 -9z"/>
 <path d="M4595 501 c-4 -8 -1 -19 8 -28 19 -20 30 -1 13 22 -10 14 -15 15 -21 6z"/>
 <path d="M2536 481 c-8 -12 21 -34 34 -26 8 5 8 11 -1 21 -13 16 -25 18 -33 5z"/>
 <path d="M5625 476 c-14 -10 -15 -15 -6 -21 8 -4 19 -1 28 8 20 19 1 30 -22 13z"/>
 <path d="M2606 451 c-8 -12 21 -34 34 -26 8 5 8 11 -1 21 -13 16 -25 18 -33 5z"/>
 <path d="M5555 446 c-14 -10 -15 -15 -6 -21 8 -4 19 -1 28 8 20 19 1 30 -22 13z"/>
 <path d="M3521 412 c-13 -25 2 -38 19 -16 9 10 10 18 3 25 -8 8 -14 5 -22 -9z"/>
 <path d="M4645 421 c-4 -8 -1 -19 8 -28 19 -20 30 -1 13 22 -10 14 -15 15 -21 6z"/>
 <path d="M2706 411 c-8 -12 21 -34 34 -26 8 5 8 11 -1 21 -13 16 -25 18 -33 5z"/>
 <path d="M5451 406 c-9 -10 -9 -16 -1 -21 13 -8 42 14 34 26 -8 13 -20 11 -33 -5z"/>
 <path d="M2786 381 c-3 -5 0 -14 7 -20 18 -15 51 -18 55 -6 4 13 -55 38 -62 26z"/>
 <path d="M5361 374 c-23 -10 -31 -18 -24 -25 11 -11 56 2 67 20 11 17 -8 20 -43 5z"/>
 <path d="M2875 350 c-7 -12 14 -25 69 -44 48 -15 84 -9 54 10 -25 16 -118 42 -123 34z"/>
 <path d="M5255 341 c-62 -20 -79 -31 -68 -42 10 -10 101 17 121 36 22 20 0 23 -53 6z"/>
 <path d="M3471 332 c-13 -25 2 -38 19 -16 9 10 10 18 3 25 -8 8 -14 5 -22 -9z"/>
 <path d="M4695 341 c-4 -8 -1 -19 8 -28 19 -20 30 -1 13 22 -10 14 -15 15 -21 6z"/>
 <path d="M3036 301 c-8 -12 21 -34 34 -26 8 5 8 11 -1 21 -13 16 -25 18 -33 5z"/>
 <path d="M5121 296 c-9 -10 -9 -16 -1 -21 13 -8 42 14 34 26 -8 13 -20 11 -33 -5z"/>
 <path d="M3428 261 c-16 -28 -28 -39 -39 -35 -10 2 -31 6 -48 9 -17 2 -35 6 -40 9 -5 4 -12 2 -15 -3 -7 -11 22 -36 31 -28 3 4 11 3 17 -2 6 -4 26 -11 43 -14 30 -6 35 -3 64 39 21 31 28 49 21 56 -7 7 -18 -3 -34 -31z"/>
 <path d="M3146 271 c-8 -12 21 -34 34 -26 6 4 17 1 25 -5 8 -6 20 -8 26 -4 16 9 -17 35 -36 28 -7 -3 -16 -1 -20 5 -8 13 -22 14 -29 2z"/>
 <path d="M5015 269 c-4 -6 -13 -8 -20 -5 -19 7 -52 -19 -36 -28 6 -4 18 -2 26 4 8 6 19 9 25 5 13 -8 42 14 34 26 -7 12 -21 11 -29 -2z"/>
 <path d="M4746 261 c-4 -6 2 -25 14 -41 24 -34 21 -33 55 -20 32 12 23 34 -11 26 -13 -4 -24 -3 -24 2 0 4 -6 16 -13 27 -10 12 -16 15 -21 6z"/>
 <path d="M4875 236 c-14 -10 -15 -15 -6 -21 8 -4 19 -1 28 8 20 19 1 30 -22 13z"/>
 <path d="M3305 61 c-7 -12 12 -24 25 -16 11 7 4 25 -10 25 -5 0 -11 -4 -15 -9z"/>
 <path d="M4855 61 c-7 -12 12 -24 25 -16 11 7 4 25 -10 25 -5 0 -11 -4 -15 -9z"/>
 </g>
<g id="layer2" fill="#010101" stroke="none">
 <path d="M4185 8388 c-159 -9 -342 -32 -427 -54 -32 -8 -67 -14 -79 -14 -12 0 -45 -6 -73 -14 -28 -8 -80 -22 -116 -31 -36 -9 -78 -21 -95 -26 -16 -6 -47 -15 -68 -20 -21 -5 -45 -13 -55 -18 -9 -4 -42 -16 -72 -25 -30 -10 -95 -34 -145 -53 -99 -40 -105 -42 -153 -66 -19 -9 -38 -17 -44 -17 -5 0 -22 -9 -36 -19 -15 -10 -30 -19 -34 -20 -5 -1 -8 -3 -8 -6 0 -3 0 -8 0 -11 0 -4 6 -1 13 5 8 6 16 9 19 6 2 -3 31 3 64 14 109 34 149 45 171 47 12 2 31 8 42 13 11 6 31 11 45 11 14 0 35 4 48 9 13 5 55 14 93 20 39 6 102 18 140 26 173 36 249 40 680 40 431 0 507 -4 680 -40 39 -8 102 -20 140 -26 39 -6 80 -15 93 -20 13 -5 34 -9 48 -9 14 0 34 -5 44 -10 11 -6 32 -12 47 -15 15 -2 51 -11 78 -19 28 -8 91 -26 140 -41 50 -14 104 -32 120 -39 17 -8 41 -18 55 -24 30 -11 74 -29 115 -47 17 -7 55 -23 85 -35 64 -26 190 -83 240 -109 31 -16 60 -31 190 -104 83 -46 127 -73 164 -99 21 -15 43 -28 48 -28 8 0 130 -81 207 -138 95 -70 207 -166 314 -271 65 -64 124 -118 132 -121 12 -5 55 -51 167 -181 25 -30 76 -95 113 -144 37 -50 75 -99 86 -110 38 -40 81 -101 101 -145 12 -25 31 -58 43 -75 13 -16 35 -52 50 -80 14 -27 35 -63 45 -80 11 -16 29 -48 41 -70 12 -22 28 -48 37 -57 8 -10 11 -18 7 -18 -4 0 0 -9 11 -21 10 -12 18 -23 16 -25 -3 -5 12 -39 56 -134 24 -53 80 -187 122 -295 4 -11 15 -38 23 -60 9 -22 26 -74 37 -115 12 -41 30 -101 41 -133 17 -53 29 -100 59 -232 5 -22 14 -67 20 -100 7 -33 18 -89 25 -125 61 -298 72 -848 24 -1220 -12 -93 -55 -334 -69 -390 -5 -19 -14 -57 -21 -85 -6 -27 -30 -111 -52 -185 -22 -74 -41 -142 -41 -150 -1 -9 -5 -21 -9 -27 -4 -6 -3 -14 2 -17 5 -4 12 -2 16 4 3 5 3 10 -1 10 -4 0 0 8 8 18 13 15 27 42 75 152 9 19 19 42 23 50 18 38 80 201 96 250 9 30 21 63 25 72 5 10 13 34 18 55 5 21 14 52 20 68 5 17 17 59 26 95 9 36 23 88 31 116 8 28 14 61 14 73 0 12 6 47 14 79 42 164 74 605 62 849 -12 262 -24 427 -35 483 -6 30 -20 102 -31 160 -31 165 -48 240 -71 310 -11 36 -24 81 -29 100 -8 33 -15 55 -46 143 -76 209 -164 402 -259 572 -25 44 -49 89 -54 100 -22 49 -245 370 -326 470 -114 141 -137 166 -275 305 -131 131 -244 234 -345 314 -65 51 -438 306 -448 306 -2 0 -49 25 -103 56 -55 31 -127 69 -161 85 -153 71 -191 88 -243 109 -30 12 -70 28 -88 36 -18 8 -37 14 -43 14 -6 0 -25 6 -42 13 -51 22 -99 38 -137 47 -19 5 -64 18 -100 29 -69 23 -143 40 -305 71 -335 64 -670 82 -1070 58z"/>
 <path d="M1331 7186 c-7 -8 -8 -17 -3 -20 6 -3 15 1 21 8 7 8 8 17 3 20 -6 3 -15 -1 -21 -8z"/>
 <path d="M189 5446 c-1 -3 -2 -9 -3 -13 -1 -5 -5 -13 -9 -20 -4 -6 -3 -14 3 -18 5 -3 11 -4 11 -1 1 3 2 9 3 14 1 4 5 12 9 19 4 6 3 14 -3 18 -5 3 -11 4 -11 1z"/>
 <path d="M169 5376 c-1 -3 -2 -9 -3 -13 -1 -5 -5 -13 -9 -20 -4 -6 -3 -14 3 -18 5 -3 11 -4 11 -1 1 3 2 9 3 14 1 4 5 12 9 19 4 6 3 14 -3 18 -5 3 -11 4 -11 1z"/>
 <path d="M156 2871 c-4 -5 -2 -12 4 -16 6 -4 8 -10 5 -15 -3 -5 -1 -11 4 -14 5 -4 12 -2 15 3 4 5 2 12 -4 16 -6 4 -8 10 -5 15 3 5 1 11 -4 14 -5 4 -12 2 -15 -3z"/>
 <path d="M176 2801 c-4 -5 -2 -12 4 -16 6 -4 8 -10 5 -15 -3 -5 -1 -11 4 -14 5 -4 12 -2 15 3 4 5 2 12 -4 16 -6 4 -8 10 -5 15 3 5 1 11 -4 14 -5 4 -12 2 -15 -3z"/>
 <path d="M1326 1032 c-3 -6 1 -15 8 -21 8 -7 17 -8 20 -3 3 6 -1 15 -8 21 -8 7 -17 8 -20 3z"/>
 <path d="M6841 1026 c-7 -8 -8 -17 -3 -20 6 -3 15 1 21 8 7 8 8 17 3 20 -6 3 -15 -1 -21 -8z"/>
 <path d="M3543 3 c32 -2 81 -2 110 0 29 2 3 3 -58 3 -60 0 -84 -1 -52 -3z"/>
 <path d="M4543 3 c32 -2 81 -2 110 0 29 2 3 3 -58 3 -60 0 -84 -1 -52 -3z"/>
 </g>
<g id="layer3" fill="#2a2a2a" stroke="none">
 <path d="M3660 8200 c-135 -14 -224 -27 -265 -38 -22 -6 -74 -16 -115 -22 -41 -7 -85 -16 -98 -21 -13 -5 -34 -9 -48 -9 -14 0 -34 -5 -44 -10 -11 -6 -32 -12 -47 -14 -15 -2 -41 -8 -58 -14 -63 -21 -151 -46 -170 -48 -11 -1 -20 -3 -20 -4 0 -1 -15 -3 -34 -6 -19 -2 -39 -8 -45 -13 -6 -6 -34 -17 -61 -26 -28 -9 -72 -26 -100 -39 -27 -13 -75 -34 -105 -46 -65 -26 -191 -83 -240 -109 -95 -48 -307 -172 -364 -213 -21 -16 -43 -28 -48 -28 -9 0 -155 -96 -198 -130 -14 -11 -39 -30 -56 -42 -70 -51 -141 -113 -179 -155 -22 -25 -50 -49 -63 -54 -12 -5 -21 -14 -20 -20 2 -7 -16 -27 -40 -45 -23 -18 -43 -37 -43 -41 -1 -13 -31 -43 -44 -43 -7 0 -49 -42 -94 -94 -46 -52 -89 -97 -96 -100 -7 -2 -28 -26 -46 -53 -18 -26 -36 -50 -40 -53 -4 -3 -25 -30 -46 -61 -21 -30 -49 -66 -62 -79 -40 -42 -111 -144 -111 -161 0 -8 -13 -33 -29 -55 -16 -21 -42 -63 -57 -92 -34 -63 -41 -73 -79 -132 -52 -80 -143 -272 -215 -450 -43 -108 -47 -118 -73 -185 -8 -22 -29 -87 -47 -145 -17 -58 -36 -121 -42 -140 -6 -19 -13 -48 -14 -63 -2 -15 -8 -35 -13 -45 -5 -9 -10 -33 -12 -52 -2 -19 -6 -39 -10 -45 -4 -5 -10 -35 -13 -65 -4 -30 -13 -95 -21 -145 -27 -172 -35 -342 -35 -700 0 -358 8 -529 35 -700 8 -49 17 -112 21 -140 4 -27 10 -54 13 -60 4 -5 8 -26 10 -45 2 -19 7 -43 13 -53 5 -10 10 -28 12 -40 2 -23 9 -48 58 -212 26 -88 36 -117 68 -200 121 -312 174 -421 328 -680 35 -60 73 -121 83 -134 11 -13 19 -31 19 -41 0 -9 15 -34 33 -56 18 -21 60 -77 92 -124 92 -132 133 -178 390 -435 214 -214 322 -315 339 -315 3 0 63 -45 133 -100 70 -55 135 -100 144 -100 9 0 27 -8 40 -19 33 -25 285 -174 359 -212 56 -28 216 -102 270 -124 36 -15 83 -35 105 -45 22 -10 61 -26 87 -34 26 -9 56 -20 65 -25 10 -6 59 -22 108 -36 50 -15 113 -33 140 -41 28 -8 63 -17 78 -19 16 -3 34 -8 40 -12 6 -4 29 -10 52 -14 22 -4 67 -12 100 -19 33 -7 69 -13 80 -15 11 -1 58 -7 105 -13 190 -26 322 -32 675 -32 353 0 485 6 675 32 47 6 94 12 105 13 11 2 47 8 80 15 33 7 78 15 100 19 23 4 46 10 52 14 6 4 24 9 40 12 15 2 51 11 78 19 28 8 91 26 140 41 50 14 98 30 108 36 9 5 39 16 65 25 26 8 65 24 87 34 22 10 69 30 105 45 54 22 214 96 270 124 74 38 326 187 359 212 13 11 31 19 40 19 9 0 74 45 144 100 70 55 130 100 133 100 17 0 125 101 339 315 257 257 298 303 390 435 32 47 74 103 92 124 18 22 33 47 33 56 0 10 8 28 19 41 10 13 48 74 83 134 154 258 211 377 328 680 4 11 13 34 20 50 7 17 14 41 15 55 1 14 20 86 42 160 22 74 46 158 52 185 7 28 16 66 21 85 14 56 57 297 69 390 48 372 37 922 -24 1220 -7 36 -18 92 -25 125 -6 33 -15 78 -20 100 -30 132 -42 179 -59 232 -11 32 -29 92 -41 133 -11 41 -28 93 -37 115 -8 22 -19 49 -23 60 -42 108 -98 242 -122 295 -44 95 -59 129 -56 134 2 2 -6 13 -16 25 -11 12 -15 21 -11 21 4 0 1 8 -7 18 -9 9 -25 35 -37 57 -12 22 -30 54 -41 70 -10 17 -31 53 -46 80 -14 28 -39 68 -55 89 -16 22 -29 47 -29 55 0 17 -71 119 -111 161 -13 13 -41 49 -62 79 -21 31 -42 58 -46 61 -4 3 -18 21 -32 41 -32 47 -231 269 -241 269 -5 0 -59 50 -121 111 -104 103 -205 192 -281 247 -17 12 -42 31 -56 42 -43 34 -189 130 -198 130 -5 0 -27 13 -48 28 -37 26 -81 53 -164 99 -130 73 -159 88 -190 104 -50 26 -176 83 -240 109 -30 12 -68 28 -85 35 -41 18 -85 36 -115 47 -14 6 -38 16 -55 24 -16 7 -70 25 -120 39 -49 15 -112 33 -140 41 -27 8 -63 17 -78 19 -15 3 -36 9 -47 15 -10 5 -30 10 -44 10 -14 0 -35 4 -48 9 -13 5 -54 14 -93 20 -38 6 -101 18 -140 26 -38 7 -101 19 -140 26 -83 13 -863 21 -975 9z m615 -224 c55 -2 108 -6 118 -11 10 -4 35 -5 57 -1 24 4 41 2 46 -5 4 -7 21 -9 43 -5 47 7 57 0 65 -49 4 -22 12 -45 18 -52 5 -7 7 -16 4 -21 -5 -8 9 -84 21 -112 3 -8 7 -30 9 -48 2 -19 8 -40 14 -47 7 -8 9 -19 5 -25 -3 -5 -3 -16 2 -22 4 -7 8 -26 10 -43 4 -60 19 -82 60 -89 21 -3 49 -8 63 -11 14 -3 34 -7 45 -9 11 -2 32 -8 46 -14 15 -6 30 -8 33 -5 3 3 11 1 18 -5 7 -5 39 -15 72 -21 32 -6 64 -15 70 -20 6 -5 45 -19 86 -31 41 -12 87 -29 102 -36 14 -8 33 -14 41 -14 8 0 35 -11 58 -25 24 -14 54 -25 66 -25 12 0 24 -4 28 -9 4 -8 248 -131 259 -131 1 0 34 -20 72 -45 37 -25 73 -45 79 -45 7 0 20 9 31 21 10 12 43 37 72 56 28 19 52 39 52 43 0 5 8 11 18 14 15 5 58 39 115 90 9 9 20 16 25 16 4 1 22 14 40 29 39 34 55 32 107 -15 21 -19 43 -34 49 -34 6 0 17 -9 24 -20 7 -11 18 -20 26 -20 8 0 16 -7 20 -15 3 -8 11 -15 18 -15 7 0 19 -9 26 -20 7 -11 17 -20 23 -20 6 0 20 -11 31 -25 11 -14 23 -25 28 -25 4 0 23 -15 42 -32 235 -227 348 -338 348 -344 0 -4 16 -22 35 -40 l35 -32 -25 -43 c-13 -24 -54 -102 -91 -174 -36 -71 -80 -156 -98 -188 -29 -54 -30 -59 -13 -71 9 -7 17 -18 17 -23 0 -6 11 -22 25 -37 30 -32 99 -134 108 -158 3 -10 23 -44 44 -75 20 -32 47 -78 60 -103 12 -25 27 -53 33 -62 25 -44 32 -56 54 -103 13 -27 39 -88 56 -135 18 -47 41 -100 51 -118 11 -18 19 -40 19 -48 0 -8 8 -31 17 -52 9 -20 18 -48 19 -61 2 -13 11 -32 21 -43 17 -19 27 -20 136 -16 71 3 120 1 124 -5 3 -6 49 -8 115 -5 118 5 121 4 125 -50 1 -18 9 -46 17 -63 8 -16 13 -36 10 -44 -3 -8 1 -28 10 -45 8 -17 13 -37 10 -45 -3 -7 -1 -16 5 -20 6 -3 8 -17 5 -30 -3 -12 -1 -26 6 -30 6 -4 8 -15 5 -25 -3 -10 -1 -21 4 -25 6 -3 8 -19 5 -34 -3 -16 -1 -32 5 -35 6 -4 8 -20 5 -35 -4 -16 -1 -32 5 -35 7 -5 9 -22 5 -45 -4 -23 -2 -41 5 -45 6 -4 8 -24 4 -51 -3 -24 -2 -52 2 -62 4 -10 9 -61 11 -113 1 -52 6 -132 9 -177 5 -67 4 -83 -7 -83 -8 0 -31 -9 -53 -20 -22 -11 -43 -20 -48 -20 -4 0 -32 -11 -60 -24 -29 -13 -73 -31 -99 -40 -26 -10 -50 -22 -53 -27 -4 -5 -14 -9 -23 -9 -33 0 -135 -57 -138 -76 -1 -11 -4 -48 -8 -84 -3 -36 -8 -78 -10 -95 -19 -121 -16 -105 -40 -225 -8 -41 -21 -98 -29 -127 -8 -28 -13 -54 -11 -56 3 -2 -2 -17 -10 -32 -8 -16 -13 -32 -10 -37 3 -5 1 -15 -5 -22 -6 -7 -13 -29 -15 -49 -3 -20 -14 -56 -25 -81 -12 -25 -21 -53 -21 -63 0 -10 -7 -27 -15 -37 -8 -11 -15 -35 -15 -52 0 -26 8 -39 36 -61 20 -15 60 -50 89 -78 48 -46 125 -117 204 -188 l30 -28 -19 -32 c-10 -17 -40 -77 -67 -131 -26 -55 -53 -109 -60 -120 -7 -12 -21 -39 -33 -61 -11 -22 -28 -52 -38 -66 -9 -14 -30 -46 -46 -70 -16 -24 -51 -77 -78 -117 -26 -41 -48 -75 -48 -77 0 -2 -11 -16 -25 -31 -14 -15 -25 -33 -25 -40 0 -8 -5 -14 -10 -14 -6 0 -14 -8 -17 -17 -4 -9 -14 -24 -22 -34 -9 -9 -25 -28 -36 -43 -11 -14 -32 -39 -47 -56 -16 -16 -28 -34 -28 -39 0 -25 -50 -17 -211 35 -96 31 -178 59 -184 62 -5 3 -20 7 -32 8 -13 2 -36 9 -52 17 -28 14 -29 13 -115 -67 -112 -104 -147 -135 -222 -193 -34 -26 -92 -72 -129 -102 -38 -29 -84 -62 -104 -73 -20 -11 -44 -27 -53 -35 -9 -8 -32 -22 -50 -31 -46 -23 -58 -54 -47 -122 5 -30 11 -86 14 -124 3 -38 9 -74 12 -79 4 -6 8 -40 10 -76 2 -35 7 -69 12 -75 18 -23 4 -61 -29 -83 -18 -13 -41 -23 -50 -23 -10 0 -29 -10 -44 -21 -15 -12 -30 -19 -33 -16 -6 7 -60 -19 -85 -40 -9 -8 -21 -12 -26 -9 -5 3 -21 -3 -35 -14 -14 -11 -29 -19 -34 -18 -12 3 -56 -13 -73 -26 -8 -7 -26 -13 -39 -14 -13 0 -31 -8 -41 -17 -9 -8 -32 -17 -49 -20 -18 -2 -38 -8 -44 -13 -19 -14 -109 -42 -118 -36 -5 3 -19 -1 -31 -8 -13 -6 -38 -13 -56 -15 -19 -1 -45 -9 -58 -18 -14 -9 -29 -13 -34 -10 -6 3 -16 3 -22 -2 -7 -4 -28 -9 -46 -10 -19 -1 -40 -7 -47 -13 -8 -7 -19 -9 -25 -5 -6 4 -27 -1 -46 -10 -34 -16 -36 -16 -49 2 -8 10 -15 23 -15 30 0 6 -11 25 -25 41 -14 17 -25 35 -25 40 0 6 -11 23 -24 39 -13 15 -26 38 -30 49 -4 12 -15 29 -26 39 -11 10 -20 24 -20 30 0 7 -9 24 -21 39 -12 15 -31 46 -43 69 l-23 42 -69 -3 c-87 -4 -626 -4 -718 0 l-69 3 -23 -42 c-12 -23 -31 -54 -43 -69 -12 -15 -21 -31 -21 -36 0 -6 -11 -23 -25 -40 -14 -16 -25 -35 -25 -43 0 -7 -7 -19 -17 -26 -9 -8 -22 -27 -30 -44 -7 -16 -25 -48 -38 -70 -14 -22 -28 -45 -31 -52 -6 -13 -60 -7 -80 8 -6 5 -14 6 -17 2 -4 -3 -13 0 -21 6 -8 7 -29 13 -48 14 -18 1 -39 6 -45 10 -7 5 -17 5 -23 2 -5 -3 -20 1 -34 10 -13 9 -39 17 -58 18 -18 2 -43 9 -56 15 -12 7 -26 11 -31 8 -9 -6 -99 22 -118 36 -6 5 -26 11 -44 13 -17 3 -40 12 -49 20 -10 9 -28 17 -41 17 -13 1 -31 7 -39 14 -17 13 -61 29 -73 26 -5 -1 -20 7 -34 18 -14 11 -30 17 -35 14 -5 -3 -17 1 -26 9 -24 21 -98 57 -105 51 -5 -6 -91 37 -118 58 -20 16 -32 65 -19 73 5 3 10 20 10 38 0 48 6 100 13 117 3 8 6 26 7 40 1 50 7 95 15 113 4 9 5 24 1 32 -3 8 -1 26 5 39 15 32 -6 76 -46 96 -17 8 -46 27 -66 43 -20 15 -39 27 -42 27 -3 0 -55 37 -114 82 -157 119 -184 142 -327 275 -87 81 -102 88 -146 69 -31 -13 -424 -136 -434 -136 -7 0 -20 13 -29 30 -10 16 -22 30 -27 30 -4 0 -17 15 -27 32 -11 18 -29 44 -41 58 -61 72 -79 97 -85 113 -4 9 -10 17 -15 17 -5 0 -19 20 -32 45 -13 24 -31 52 -41 61 -11 10 -19 23 -19 29 0 7 -7 19 -16 26 -9 7 -20 22 -25 34 -5 11 -18 34 -29 50 -11 17 -24 39 -30 50 -6 11 -23 43 -39 70 -16 28 -47 88 -70 135 -22 47 -45 92 -51 100 -6 8 -15 26 -21 40 -6 14 -15 33 -20 42 -7 13 0 23 29 44 20 15 60 49 87 75 28 26 76 71 107 100 31 30 75 69 98 88 46 37 47 48 10 126 -28 58 -51 125 -56 164 -2 19 -8 39 -13 45 -4 6 -8 18 -8 26 0 8 -10 51 -22 95 -12 44 -24 91 -26 105 -3 14 -9 48 -15 75 -18 82 -19 88 -25 135 -3 25 -8 61 -11 80 -4 19 -8 54 -10 78 -6 84 -13 101 -57 126 -23 13 -53 27 -67 31 -14 4 -52 20 -85 35 -33 15 -111 47 -173 71 l-113 44 6 95 c3 52 7 133 9 180 2 47 7 93 11 103 4 10 5 35 1 57 -4 24 -2 41 5 46 7 4 9 21 5 45 -4 23 -2 40 5 45 6 3 9 19 5 35 -3 15 -1 31 5 35 6 3 8 17 5 29 -3 13 -1 27 5 30 6 4 8 18 5 30 -3 13 -1 27 5 31 6 3 8 16 5 27 -3 12 -2 26 3 31 13 18 31 103 25 119 -3 8 -1 18 5 21 6 4 8 13 5 20 -3 8 -1 17 5 20 6 4 8 13 5 20 -3 8 -1 17 5 20 6 4 8 13 5 20 -9 24 19 31 118 27 53 -1 103 1 110 5 7 5 67 7 133 5 109 -3 122 -1 138 17 10 11 19 30 21 43 1 13 10 41 19 61 9 21 17 46 17 56 0 10 5 23 10 28 6 6 21 41 34 77 13 37 28 72 34 79 5 7 15 31 21 54 6 22 24 61 41 85 16 24 30 51 30 60 0 9 6 22 14 28 8 6 23 33 35 59 23 51 31 65 73 125 16 22 28 44 28 49 0 11 76 124 100 148 10 10 26 34 35 53 l16 34 -86 174 c-47 96 -97 194 -111 219 -31 58 -30 74 6 100 17 12 30 26 30 31 0 10 301 309 311 309 4 0 21 16 38 35 17 19 35 35 40 35 5 0 18 11 29 25 11 14 25 25 31 25 6 0 16 9 23 20 7 11 19 20 26 20 7 0 15 7 18 15 4 8 11 15 18 15 6 0 26 14 44 30 18 17 37 30 42 30 5 0 13 6 17 14 4 8 21 21 37 30 37 19 41 17 146 -75 25 -21 51 -39 58 -39 6 0 12 -4 12 -9 0 -4 19 -21 42 -37 46 -31 52 -36 114 -89 23 -19 46 -35 51 -35 5 0 40 20 77 45 38 25 71 45 73 45 10 0 254 124 259 131 3 5 15 9 27 9 12 0 42 11 66 25 23 14 50 25 58 25 8 0 27 6 41 14 15 7 61 24 102 36 41 12 80 26 86 31 6 5 38 14 70 20 33 6 65 16 72 21 7 6 15 8 18 5 3 -3 18 -1 33 5 14 6 37 12 51 15 14 2 34 6 45 9 11 2 37 7 58 10 38 6 64 34 52 55 -4 5 -1 16 5 24 6 8 9 19 5 25 -4 6 -2 17 5 25 6 7 12 28 13 47 1 18 6 39 10 46 5 6 5 17 2 22 -4 6 -2 17 5 25 6 7 12 28 14 47 2 18 6 41 11 51 4 10 8 30 9 45 1 15 5 32 9 39 4 6 4 18 1 26 -8 22 27 37 68 30 21 -3 38 -1 42 5 4 7 25 9 55 5 27 -3 51 -1 54 4 4 6 44 8 100 5 61 -3 101 -1 113 7 12 7 44 9 89 5 39 -3 115 -7 170 -8z"/>
 <path d="M3919 6736 c-2 -3 -44 -7 -93 -11 -49 -3 -93 -8 -97 -10 -4 -3 -31 -7 -61 -10 -29 -3 -60 -8 -68 -12 -8 -3 -31 -7 -50 -10 -51 -6 -190 -42 -225 -59 -49 -22 -117 -44 -124 -40 -4 3 -34 -8 -66 -24 -33 -16 -67 -30 -76 -30 -9 0 -28 -9 -42 -20 -14 -11 -30 -20 -36 -20 -12 0 -99 -45 -166 -85 -22 -13 -51 -29 -65 -35 -41 -18 -180 -112 -180 -121 0 -5 -6 -9 -13 -9 -7 0 -27 -13 -44 -29 -18 -16 -37 -31 -42 -33 -45 -15 -406 -377 -444 -444 -4 -7 -21 -28 -37 -46 -17 -18 -30 -37 -30 -43 0 -7 -11 -22 -25 -35 -14 -13 -25 -27 -25 -32 0 -4 -15 -29 -33 -55 -19 -27 -37 -55 -41 -63 -4 -8 -18 -33 -31 -55 -26 -43 -109 -207 -133 -265 -8 -19 -19 -43 -23 -52 -5 -10 -9 -23 -9 -30 0 -7 -7 -26 -16 -43 -24 -44 -53 -132 -47 -139 3 -3 0 -12 -6 -20 -7 -8 -13 -25 -15 -38 -1 -13 -8 -35 -14 -50 -6 -15 -9 -34 -6 -42 3 -8 0 -17 -5 -21 -6 -3 -9 -11 -5 -16 3 -5 0 -16 -6 -24 -6 -8 -9 -19 -5 -25 4 -6 1 -17 -5 -25 -6 -8 -9 -19 -5 -25 4 -6 1 -17 -5 -25 -7 -8 -9 -22 -6 -31 4 -9 1 -23 -5 -30 -6 -8 -8 -25 -5 -38 3 -14 1 -28 -4 -31 -6 -4 -10 -23 -10 -43 0 -20 -3 -86 -6 -147 -9 -136 -9 -154 0 -290 3 -60 6 -127 6 -147 0 -20 4 -39 10 -43 5 -3 7 -17 4 -31 -3 -13 -1 -30 5 -38 6 -7 9 -21 5 -30 -3 -9 -1 -23 6 -31 6 -8 9 -19 5 -25 -4 -6 -1 -17 5 -25 6 -8 9 -19 5 -25 -4 -6 -1 -17 5 -25 6 -8 9 -19 6 -24 -4 -5 -1 -13 5 -16 5 -4 8 -13 5 -21 -3 -8 0 -27 6 -42 6 -15 13 -37 14 -50 2 -13 8 -30 15 -38 6 -8 9 -17 6 -20 -6 -7 23 -95 47 -139 9 -16 16 -36 16 -43 0 -7 4 -20 9 -30 4 -9 15 -33 23 -52 24 -58 107 -222 133 -265 13 -22 27 -47 31 -55 4 -8 22 -36 41 -63 18 -26 33 -51 33 -55 0 -5 11 -19 25 -32 14 -13 25 -28 25 -35 0 -6 13 -25 30 -43 16 -18 33 -39 37 -46 38 -67 399 -429 444 -444 5 -2 24 -17 42 -33 17 -16 37 -29 44 -29 7 0 13 -4 13 -9 0 -9 139 -103 180 -121 14 -6 43 -22 65 -35 72 -44 154 -85 168 -85 8 0 20 -6 26 -14 7 -8 24 -17 39 -21 15 -3 50 -18 79 -31 28 -14 62 -27 75 -28 31 -4 64 -14 113 -36 45 -20 180 -57 235 -63 19 -3 42 -7 50 -10 8 -4 39 -9 68 -12 30 -3 57 -7 61 -10 41 -25 691 -25 732 0 4 3 31 7 61 10 29 3 60 8 68 12 8 3 31 7 50 10 55 6 190 43 235 63 49 22 82 32 113 36 13 1 47 14 75 28 29 13 64 28 79 31 15 4 32 13 39 21 6 8 18 14 26 14 14 0 96 41 168 85 22 13 51 29 65 35 41 18 180 112 180 121 0 5 6 9 13 9 7 0 27 13 44 29 18 16 37 31 42 33 45 15 406 377 444 444 4 7 21 28 37 46 17 18 30 37 30 43 0 7 11 22 25 35 14 13 25 27 25 32 0 4 15 29 33 55 19 27 37 55 41 63 4 8 18 33 31 55 26 43 109 207 133 265 8 19 19 43 23 52 5 10 9 23 9 30 0 7 7 27 16 43 24 44 53 132 47 139 -3 3 0 12 6 20 7 8 13 25 15 38 1 13 8 35 14 50 6 15 9 34 6 42 -3 8 0 17 5 21 6 3 9 11 5 16 -3 5 0 16 6 24 6 8 9 19 5 25 -4 6 -1 17 5 25 6 8 9 19 5 25 -4 6 -1 17 5 25 7 8 9 22 6 31 -4 9 -1 23 5 30 6 8 8 25 5 38 -3 14 -1 28 4 31 6 4 10 23 10 43 0 20 3 84 7 142 8 131 8 169 0 300 -4 58 -7 122 -7 142 0 20 -4 39 -10 43 -5 3 -7 17 -4 31 3 13 1 30 -5 38 -6 7 -9 21 -5 30 3 9 1 23 -6 31 -6 8 -9 19 -5 25 4 6 1 17 -5 25 -6 8 -9 19 -5 25 4 6 1 17 -5 25 -6 8 -9 19 -6 24 4 5 1 13 -5 16 -5 4 -8 13 -5 21 3 8 0 27 -6 42 -6 15 -13 37 -14 50 -2 13 -8 30 -15 38 -6 8 -9 17 -6 20 6 7 -23 95 -47 139 -9 17 -16 36 -16 43 0 7 -4 20 -9 30 -4 9 -15 33 -23 52 -24 58 -107 222 -133 265 -13 22 -27 47 -31 55 -4 8 -22 36 -41 63 -18 26 -33 51 -33 55 0 5 -11 19 -25 32 -14 13 -25 28 -25 35 0 6 -13 25 -30 43 -16 18 -33 39 -37 46 -38 67 -399 429 -444 444 -5 2 -24 17 -42 33 -17 16 -37 29 -44 29 -7 0 -13 4 -13 9 0 9 -139 103 -180 121 -14 6 -43 22 -65 35 -67 40 -154 85 -166 85 -6 0 -22 9 -36 20 -14 11 -33 20 -42 20 -9 0 -43 14 -76 30 -32 16 -62 27 -66 24 -7 -4 -75 18 -124 40 -35 17 -174 53 -225 59 -19 3 -42 7 -50 10 -8 4 -38 8 -66 11 -28 3 -57 8 -65 11 -35 13 -529 32 -540 21z m391 -260 c100 -11 134 -15 223 -31 17 -3 40 -5 49 -6 10 0 20 -5 23 -10 4 -5 11 -7 16 -3 5 3 16 0 24 -6 8 -6 18 -9 24 -6 5 3 21 -1 37 -9 15 -7 31 -12 35 -10 4 3 19 -2 35 -10 15 -7 31 -12 36 -9 5 3 14 1 21 -4 7 -5 73 -33 147 -62 143 -55 179 -71 275 -126 33 -18 69 -38 80 -43 11 -5 40 -25 65 -45 25 -20 50 -36 56 -36 7 0 22 -11 35 -25 13 -13 27 -25 32 -25 4 0 16 -8 26 -17 10 -10 32 -28 47 -41 67 -54 98 -81 176 -159 77 -76 110 -113 170 -187 13 -15 31 -37 41 -47 9 -10 17 -23 17 -27 0 -5 11 -19 25 -32 14 -13 25 -28 25 -34 0 -6 16 -31 36 -56 20 -25 40 -54 45 -65 5 -11 23 -42 39 -70 47 -82 77 -144 121 -255 22 -58 46 -111 52 -118 5 -7 7 -15 4 -19 -4 -3 -1 -15 6 -27 6 -11 12 -28 13 -36 2 -23 35 -144 42 -155 4 -5 8 -25 9 -43 1 -19 7 -40 13 -47 6 -7 8 -20 4 -29 -3 -9 -1 -23 6 -31 6 -8 9 -19 5 -25 -4 -6 -3 -19 1 -28 19 -44 30 -413 17 -587 -2 -33 -5 -73 -6 -90 -2 -16 -6 -36 -11 -43 -4 -7 -5 -20 -2 -29 4 -8 1 -22 -5 -29 -6 -8 -8 -21 -5 -30 4 -9 2 -22 -4 -29 -6 -7 -12 -28 -13 -47 -1 -18 -5 -38 -9 -43 -7 -11 -40 -132 -42 -155 -1 -8 -7 -25 -13 -36 -7 -12 -10 -24 -6 -27 3 -4 1 -12 -4 -19 -6 -7 -30 -60 -52 -118 -44 -111 -74 -173 -121 -255 -16 -27 -34 -59 -39 -70 -5 -11 -25 -40 -45 -65 -20 -25 -36 -50 -36 -56 0 -6 -11 -21 -25 -34 -14 -13 -25 -27 -25 -32 0 -4 -8 -17 -17 -27 -10 -10 -28 -32 -41 -47 -60 -74 -93 -111 -170 -187 -78 -78 -109 -105 -176 -159 -15 -13 -37 -31 -47 -41 -10 -9 -22 -17 -27 -17 -4 0 -18 -12 -31 -25 -13 -14 -28 -25 -35 -25 -6 0 -31 -16 -56 -36 -25 -20 -54 -40 -65 -45 -11 -5 -47 -25 -80 -43 -96 -55 -132 -71 -275 -126 -74 -29 -140 -57 -147 -62 -7 -5 -16 -7 -21 -4 -5 3 -21 -2 -36 -9 -16 -8 -31 -13 -35 -10 -4 2 -20 -3 -35 -10 -16 -8 -32 -12 -37 -9 -6 3 -16 0 -24 -6 -8 -6 -19 -9 -24 -6 -5 4 -12 2 -16 -3 -3 -5 -13 -10 -23 -10 -16 -1 -40 -4 -117 -17 -206 -35 -534 -35 -740 0 -77 13 -101 16 -117 17 -10 0 -20 5 -23 10 -4 5 -11 7 -16 3 -5 -3 -16 0 -24 6 -8 6 -18 9 -24 6 -5 -3 -21 1 -37 9 -15 7 -31 12 -35 10 -4 -3 -19 2 -35 10 -15 7 -31 12 -36 9 -5 -3 -14 -1 -21 4 -7 5 -73 33 -147 62 -143 55 -179 71 -275 126 -33 18 -69 38 -80 43 -11 5 -40 25 -65 45 -25 20 -50 36 -56 36 -7 0 -22 11 -35 25 -13 13 -27 25 -31 25 -5 0 -17 8 -27 17 -10 10 -32 28 -47 41 -67 54 -98 81 -176 159 -77 76 -110 113 -170 187 -13 15 -31 37 -40 47 -10 10 -18 23 -18 27 0 5 -11 19 -25 32 -14 13 -25 28 -25 34 0 6 -16 31 -36 56 -20 25 -40 54 -45 65 -5 11 -23 43 -39 70 -47 82 -77 144 -121 255 -22 58 -46 111 -52 118 -5 7 -7 15 -4 19 4 3 1 15 -6 27 -6 11 -12 28 -13 36 -2 23 -35 144 -42 155 -4 5 -8 25 -9 43 -1 19 -7 40 -13 47 -6 7 -8 20 -4 29 3 9 1 23 -6 31 -6 8 -9 19 -5 25 4 6 3 19 -1 28 -19 44 -30 413 -17 587 2 33 5 74 6 90 2 17 6 36 11 43 4 7 5 20 2 29 -4 8 -1 22 5 29 6 8 8 21 5 30 -4 9 -2 22 4 29 6 7 12 28 13 47 1 18 5 38 9 43 7 11 40 132 42 155 1 8 7 25 13 36 7 12 10 24 6 27 -3 4 -1 12 4 19 6 7 30 60 52 118 44 111 74 173 121 255 16 28 34 59 39 70 5 11 25 40 45 65 20 25 36 50 36 56 0 6 11 21 25 34 14 13 25 27 25 32 0 4 8 17 18 27 9 10 27 32 40 47 60 74 93 111 170 187 78 78 109 105 176 159 15 13 37 31 47 41 10 9 22 17 27 17 4 0 18 12 31 25 13 14 28 25 35 25 6 0 31 16 56 36 25 20 54 40 65 45 11 5 47 25 80 43 96 55 132 71 275 126 74 29 140 57 147 62 7 5 16 7 21 4 5 -3 21 2 36 9 16 8 31 13 35 10 4 -2 20 3 35 10 16 8 32 12 37 9 6 -3 16 0 24 6 8 6 19 9 24 6 5 -4 12 -2 16 3 3 5 13 10 23 10 16 1 40 4 117 17 53 9 98 14 169 19 37 2 71 6 74 10 6 6 263 -1 342 -9z"/>
 <path d="M4007 6014 c-116 -31 -210 -139 -236 -272 -8 -36 -11 -460 -11 -1297 l0 -1245 -405 0 c-495 0 -514 -3 -608 -104 -93 -99 -87 -275 13 -381 13 -14 28 -25 33 -25 6 0 18 -6 26 -14 9 -8 40 -21 70 -30 49 -14 181 -16 1207 -16 1205 0 1210 0 1287 42 32 17 107 104 123 145 17 41 18 146 1 194 -16 45 -82 125 -121 145 -74 40 -123 44 -541 44 l-404 0 -3 1283 c-3 1182 -4 1285 -20 1325 -30 75 -74 127 -138 166 -95 56 -173 68 -273 40z"/>
 </g>
<g id="layer4" fill="#ffffff" stroke="none">
 <path d="M3955 7993 c-166 -7 -346 -27 -362 -38 -13 -10 -32 -76 -68 -246 l-51 -234 -44 -11 c-25 -6 -97 -24 -160 -39 -292 -70 -634 -213 -936 -390 l-30 -18 -160 124 c-88 68 -175 136 -195 150 l-35 27 -84 -61 c-203 -145 -450 -367 -632 -569 l-70 -77 76 -148 c41 -81 94 -185 118 -229 l42 -82 -40 -53 c-185 -246 -369 -609 -489 -965 -2 -8 -79 -14 -239 -19 -199 -6 -237 -10 -249 -24 -17 -19 -58 -188 -86 -356 -35 -215 -47 -336 -57 -566 l-7 -167 24 -15 c13 -8 121 -54 240 -102 l217 -88 7 -81 c18 -212 77 -482 162 -740 l56 -170 -30 -26 c-70 -59 -333 -303 -333 -309 0 -3 35 -76 78 -161 142 -282 322 -557 504 -771 l48 -57 226 74 c125 41 237 74 248 74 13 0 60 -35 117 -87 182 -169 306 -266 478 -378 55 -36 101 -69 101 -73 0 -4 -14 -112 -31 -240 -17 -128 -29 -239 -25 -247 15 -41 480 -236 736 -309 167 -48 383 -96 392 -88 4 4 65 99 136 212 l129 205 124 -5 c68 -3 201 -5 294 -5 94 0 226 2 294 5 l125 5 128 -204 c70 -113 131 -208 135 -212 5 -4 67 6 138 22 294 66 532 147 809 275 153 71 200 99 191 114 -2 3 -16 96 -30 206 -14 109 -28 216 -31 236 l-6 37 103 66 c173 113 293 207 490 387 l96 88 234 -76 c128 -41 236 -77 240 -80 10 -6 124 130 215 256 137 188 281 427 371 618 29 62 53 114 53 116 0 3 -283 264 -333 306 l-29 26 46 139 c90 267 153 553 171 771 l7 81 217 88 c119 48 227 94 240 102 l23 15 -6 152 c-7 172 -13 243 -27 371 -25 222 -90 538 -115 565 -12 12 -63 17 -250 25 l-236 10 -38 105 c-105 297 -261 600 -432 840 l-61 85 117 228 118 227 -70 78 c-186 206 -460 452 -647 582 l-71 48 -194 -150 -194 -151 -30 18 c-348 203 -695 341 -1058 419 -91 20 -74 -15 -139 291 -23 110 -46 204 -50 209 -18 21 -468 48 -654 39z m540 -1303 c167 -26 366 -76 501 -125 140 -51 400 -182 527 -264 607 -397 1032 -1041 1152 -1748 145 -852 -126 -1708 -734 -2314 -211 -210 -417 -356 -686 -489 -263 -129 -470 -195 -765 -241 -210 -34 -580 -34 -790 0 -174 27 -372 77 -506 126 -142 52 -401 182 -527 264 -608 398 -1032 1041 -1153 1750 -144 850 128 1707 735 2312 431 429 973 684 1595 749 144 15 495 5 651 -20z"/>
 <path d="M3820 6486 c-150 -20 -213 -32 -357 -72 -855 -234 -1519 -932 -1707 -1794 -45 -209 -51 -265 -51 -520 0 -153 5 -275 13 -325 44 -272 121 -519 228 -736 351 -707 1019 -1195 1804 -1316 161 -25 529 -25 690 0 989 152 1783 893 1994 1857 45 209 51 265 51 520 0 255 -6 311 -51 520 -173 791 -747 1448 -1515 1734 -125 46 -336 101 -469 121 -143 23 -493 28 -630 11z m406 -501 c63 -26 103 -57 134 -105 62 -97 60 -40 60 -1421 0 -1015 2 -1259 13 -1267 9 -7 156 -12 442 -14 429 -3 430 -3 483 -27 60 -27 117 -88 132 -140 13 -49 13 -145 -2 -192 -16 -56 -69 -112 -130 -140 l-53 -24 -1180 -3 c-1167 -2 -1181 -2 -1248 18 -89 27 -139 76 -163 156 -47 162 34 310 186 343 32 7 202 11 454 11 324 0 406 3 415 13 7 10 11 378 13 1293 3 1205 4 1282 21 1325 34 89 113 160 207 186 56 16 164 10 216 -12z"/>
 </g>

</svg>